QLD-Beginners-Bold.ufo
<glyph name="exclam" format="2">
  <advance width="292"/>
  <unicode hex="0021"/>
  <outline>
    <contour>
      <point x="244" y="605" type="line" smooth="yes"/>
      <point x="249" y="632"/>
      <point x="222" y="650"/>
      <point x="198" y="650" type="curve" smooth="yes"/>
      <point x="176" y="650"/>
      <point x="147" y="635"/>
      <point x="143" y="611" type="curve" smooth="yes"/>
      <point x="74" y="226" type="line" smooth="yes"/>
      <point x="69" y="197"/>
      <point x="93" y="177"/>
      <point x="118" y="175" type="curve" smooth="yes"/>
      <point x="141" y="173"/>
      <point x="170" y="191"/>
      <point x="175" y="220" type="curve" smooth="yes"/>
    </contour>
    <contour>
      <point x="95" y="-10" type="curve" smooth="yes"/>
      <point x="130" y="-10"/>
      <point x="163" y="20"/>
      <point x="163" y="54" type="curve" smooth="yes"/>
      <point x="163" y="88"/>
      <point x="130" y="118"/>
      <point x="95" y="118" type="curve" smooth="yes"/>
      <point x="59" y="118"/>
      <point x="35" y="86"/>
      <point x="35" y="54" type="curve" smooth="yes"/>
      <point x="35" y="23"/>
      <point x="59" y="-10"/>
    </contour>
  </outline>
</glyph>
<glyph name="percent" format="2">
  <advance width="658"/>
  <unicode hex="0025"/>
  <outline>
    <contour>
      <point x="492" y="508" type="line" smooth="yes"/>
      <point x="511" y="543"/>
      <point x="479" y="570"/>
      <point x="449" y="570" type="curve" smooth="yes"/>
      <point x="429" y="570"/>
      <point x="411" y="558"/>
      <point x="398" y="534" type="curve" smooth="yes"/>
      <point x="138" y="60" type="line" smooth="yes"/>
      <point x="119" y="26"/>
      <point x="150" y="0"/>
      <point x="182" y="0" type="curve" smooth="yes"/>
      <point x="201" y="0"/>
      <point x="220" y="11"/>
      <point x="231" y="32" type="curve" smooth="yes"/>
    </contour>
    <contour>
      <point x="441" y="-4" type="curve" smooth="yes"/>
      <point x="520" y="-4"/>
      <point x="591" y="106"/>
      <point x="591" y="175" type="curve" smooth="yes"/>
      <point x="591" y="223"/>
      <point x="559" y="252"/>
      <point x="503" y="252" type="curve" smooth="yes"/>
      <point x="454" y="252"/>
      <point x="422" y="219"/>
      <point x="406" y="191" type="curve" smooth="yes"/>
      <point x="394" y="171"/>
      <point x="377" y="126"/>
      <point x="377" y="76" type="curve" smooth="yes"/>
      <point x="377" y="8"/>
      <point x="413" y="-4"/>
    </contour>
    <contour>
      <point x="458" y="74" type="curve" smooth="yes"/>
      <point x="454" y="74"/>
      <point x="452" y="90"/>
      <point x="453" y="102" type="curve" smooth="yes"/>
      <point x="456" y="122"/>
      <point x="462" y="141"/>
      <point x="472" y="160" type="curve" smooth="yes"/>
      <point x="480" y="175"/>
      <point x="490" y="178"/>
      <point x="500" y="178" type="curve" smooth="yes"/>
      <point x="511" y="178"/>
      <point x="511" y="169"/>
      <point x="510" y="153" type="curve" smooth="yes"/>
      <point x="508" y="121"/>
      <point x="476" y="74"/>
    </contour>
    <contour>
      <point x="122" y="308" type="curve" smooth="yes"/>
      <point x="201" y="308"/>
      <point x="272" y="418"/>
      <point x="272" y="487" type="curve" smooth="yes"/>
      <point x="272" y="535"/>
      <point x="240" y="564"/>
      <point x="184" y="564" type="curve" smooth="yes"/>
      <point x="135" y="564"/>
      <point x="103" y="531"/>
      <point x="87" y="503" type="curve" smooth="yes"/>
      <point x="75" y="483"/>
      <point x="58" y="438"/>
      <point x="58" y="388" type="curve" smooth="yes"/>
      <point x="58" y="320"/>
      <point x="94" y="308"/>
    </contour>
    <contour>
      <point x="139" y="386" type="curve" smooth="yes"/>
      <point x="135" y="386"/>
      <point x="133" y="402"/>
      <point x="134" y="414" type="curve" smooth="yes"/>
      <point x="137" y="434"/>
      <point x="143" y="453"/>
      <point x="153" y="472" type="curve" smooth="yes"/>
      <point x="161" y="487"/>
      <point x="171" y="490"/>
      <point x="181" y="490" type="curve" smooth="yes"/>
      <point x="192" y="490"/>
      <point x="192" y="481"/>
      <point x="191" y="465" type="curve" smooth="yes"/>
      <point x="189" y="433"/>
      <point x="157" y="386"/>
    </contour>
  </outline>
</glyph>
<glyph name="asterisk" format="2">
  <advance width="431"/>
  <unicode hex="002A"/>
  <outline>
    <contour>
      <point x="341" y="554" type="line" smooth="yes"/>
      <point x="367" y="570"/>
      <point x="377" y="594"/>
      <point x="362" y="617" type="curve" smooth="yes"/>
      <point x="351" y="633"/>
      <point x="323" y="639"/>
      <point x="298" y="625" type="curve" smooth="yes"/>
      <point x="165" y="543" type="line"/>
      <point x="143" y="527"/>
      <point x="131" y="504"/>
      <point x="144" y="483" type="curve" smooth="yes"/>
      <point x="154" y="464"/>
      <point x="185" y="458"/>
      <point x="212" y="474" type="curve" smooth="yes"/>
    </contour>
    <contour>
      <point x="277" y="477" type="line"/>
      <point x="302" y="460"/>
      <point x="331" y="464"/>
      <point x="345" y="481" type="curve" smooth="yes"/>
      <point x="358" y="499"/>
      <point x="356" y="521"/>
      <point x="334" y="538" type="curve" smooth="yes"/>
      <point x="229" y="621" type="line" smooth="yes"/>
      <point x="207" y="638"/>
      <point x="178" y="634"/>
      <point x="165" y="617" type="curve" smooth="yes"/>
      <point x="150" y="599"/>
      <point x="152" y="576"/>
      <point x="176" y="558" type="curve" smooth="yes"/>
    </contour>
    <contour>
      <point x="310" y="616" type="line" smooth="yes"/>
      <point x="315" y="648"/>
      <point x="295" y="668"/>
      <point x="271" y="668" type="curve" smooth="yes"/>
      <point x="250" y="668"/>
      <point x="227" y="651"/>
      <point x="222" y="624" type="curve" smooth="yes"/>
      <point x="197" y="482" type="line" smooth="yes"/>
      <point x="192" y="453"/>
      <point x="208" y="436"/>
      <point x="229" y="431" type="curve" smooth="yes"/>
      <point x="251" y="426"/>
      <point x="279" y="443"/>
      <point x="285" y="474" type="curve" smooth="yes"/>
    </contour>
  </outline>
</glyph>
<glyph name="plus" format="2">
  <advance width="537"/>
  <unicode hex="002B"/>
  <outline>
    <contour>
      <point x="306" y="296" type="line" smooth="yes"/>
      <point x="311" y="329"/>
      <point x="288" y="350"/>
      <point x="261" y="350" type="curve" smooth="yes"/>
      <point x="241" y="350"/>
      <point x="219" y="337"/>
      <point x="214" y="310" type="curve" smooth="yes"/>
      <point x="177" y="95" type="line" smooth="yes"/>
      <point x="172" y="62"/>
      <point x="195" y="41"/>
      <point x="222" y="41" type="curve" smooth="yes"/>
      <point x="242" y="41"/>
      <point x="264" y="54"/>
      <point x="269" y="81" type="curve" smooth="yes"/>
    </contour>
    <contour>
      <point x="350" y="154" type="line" smooth="yes"/>
      <point x="381" y="154"/>
      <point x="401" y="174"/>
      <point x="401" y="198" type="curve" smooth="yes"/>
      <point x="401" y="221"/>
      <point x="381" y="241"/>
      <point x="350" y="241" type="curve" smooth="yes"/>
      <point x="133" y="241" type="line" smooth="yes"/>
      <point x="102" y="241"/>
      <point x="82" y="221"/>
      <point x="82" y="198" type="curve" smooth="yes"/>
      <point x="82" y="174"/>
      <point x="102" y="154"/>
      <point x="133" y="154" type="curve" smooth="yes"/>
    </contour>
  </outline>
</glyph>
<glyph name="slash" format="2">
  <advance width="464"/>
  <unicode hex="002F"/>
  <outline>
    <contour>
      <point x="431" y="588" type="line" smooth="yes"/>
      <point x="447" y="624"/>
      <point x="416" y="650"/>
      <point x="386" y="650" type="curve" smooth="yes"/>
      <point x="366" y="650"/>
      <point x="344" y="639"/>
      <point x="333" y="614" type="curve" smooth="yes"/>
      <point x="68" y="12" type="line" smooth="yes"/>
      <point x="53" y="-23"/>
      <point x="82" y="-48"/>
      <point x="114" y="-48" type="curve" smooth="yes"/>
      <point x="133" y="-48"/>
      <point x="155" y="-38"/>
      <point x="165" y="-16" type="curve" smooth="yes"/>
    </contour>
  </outline>
</glyph>
<glyph name="one" format="2">
  <advance width="337"/>
  <unicode hex="0031"/>
  <outline>
    <contour>
      <point x="254" y="518" type="line" smooth="yes"/>
      <point x="259" y="548"/>
      <point x="235" y="568"/>
      <point x="208" y="568" type="curve" smooth="yes"/>
      <point x="185" y="568"/>
      <point x="159" y="554"/>
      <point x="154" y="526" type="curve" smooth="yes"/>
      <point x="70" y="51" type="line" smooth="yes"/>
      <point x="64" y="18"/>
      <point x="90" y="0"/>
      <point x="117" y="0" type="curve" smooth="yes"/>
      <point x="139" y="0"/>
      <point x="164" y="12"/>
      <point x="169" y="39" type="curve" smooth="yes"/>
    </contour>
  </outline>
</glyph>
<glyph name="two" format="2">
  <advance width="430"/>
  <unicode hex="0032"/>
  <outline>
    <contour>
      <point x="3" y="70" type="line"/>
      <point x="-23" y="41"/>
      <point x="-8" y="0"/>
      <point x="32" y="0" type="curve"/>
      <point x="107" y="49" type="line"/>
      <point x="162" y="112"/>
      <point x="292" y="251"/>
      <point x="303" y="264" type="curve" smooth="yes"/>
      <point x="428" y="417"/>
      <point x="442" y="491"/>
      <point x="351" y="547" type="curve" smooth="yes"/>
      <point x="276" y="593"/>
      <point x="148" y="558"/>
      <point x="84" y="504" type="curve" smooth="yes"/>
      <point x="50" y="476"/>
      <point x="56" y="454"/>
      <point x="73" y="434" type="curve" smooth="yes"/>
      <point x="85" y="421"/>
      <point x="115" y="413"/>
      <point x="153" y="443" type="curve" smooth="yes"/>
      <point x="198" y="479"/>
      <point x="271" y="493"/>
      <point x="303" y="473" type="curve" smooth="yes"/>
      <point x="330" y="457"/>
      <point x="294" y="397"/>
      <point x="246" y="343" type="curve" smooth="yes"/>
    </contour>
    <contour>
      <point x="337" y="41" type="curve" smooth="yes"/>
      <point x="337" y="65"/>
      <point x="319" y="86"/>
      <point x="287" y="86" type="curve" smooth="yes"/>
      <point x="31" y="86" type="line"/>
      <point x="31" y="0" type="line"/>
      <point x="287" y="0" type="line" smooth="yes"/>
      <point x="317" y="0"/>
      <point x="337" y="14"/>
    </contour>
  </outline>
</glyph>
<glyph name="three" format="2">
  <advance width="436"/>
  <unicode hex="0033"/>
  <outline>
    <contour>
      <point x="-11" y="93" type="curve" smooth="yes"/>
      <point x="-22" y="76"/>
      <point x="-24" y="54"/>
      <point x="9" y="28" type="curve" smooth="yes"/>
      <point x="35" y="7"/>
      <point x="72" y="-4"/>
      <point x="109" y="-4" type="curve" smooth="yes"/>
      <point x="244" y="-4"/>
      <point x="388" y="125"/>
      <point x="388" y="254" type="curve" smooth="yes"/>
      <point x="388" y="328"/>
      <point x="333" y="369"/>
      <point x="252" y="369" type="curve" smooth="yes"/>
      <point x="209" y="369"/>
      <point x="157" y="360"/>
      <point x="95" y="327" type="curve"/>
      <point x="147" y="256" type="line"/>
      <point x="175" y="275"/>
      <point x="213" y="282"/>
      <point x="241" y="282" type="curve" smooth="yes"/>
      <point x="272" y="282"/>
      <point x="291" y="269"/>
      <point x="291" y="240" type="curve" smooth="yes"/>
      <point x="291" y="160"/>
      <point x="195" y="86"/>
      <point x="110" y="86" type="curve" smooth="yes"/>
      <point x="92" y="86"/>
      <point x="79" y="90"/>
      <point x="66" y="100" type="curve" smooth="yes"/>
      <point x="35" y="124"/>
      <point x="0" y="113"/>
    </contour>
    <contour>
      <point x="71" y="445" type="curve" smooth="yes"/>
      <point x="84" y="423"/>
      <point x="114" y="416"/>
      <point x="137" y="431" type="curve" smooth="yes"/>
      <point x="192" y="468"/>
      <point x="242" y="482"/>
      <point x="273" y="482" type="curve" smooth="yes"/>
      <point x="284" y="482"/>
      <point x="289" y="479"/>
      <point x="289" y="473" type="curve" smooth="yes"/>
      <point x="289" y="457"/>
      <point x="165" y="374"/>
      <point x="95" y="327" type="curve" smooth="yes"/>
      <point x="68" y="309"/>
      <point x="65" y="290"/>
      <point x="75" y="270" type="curve" smooth="yes"/>
      <point x="86" y="249"/>
      <point x="120" y="238"/>
      <point x="147" y="256" type="curve" smooth="yes"/>
      <point x="263" y="331"/>
      <point x="385" y="426"/>
      <point x="385" y="500" type="curve" smooth="yes"/>
      <point x="385" y="548"/>
      <point x="334" y="568"/>
      <point x="266" y="568" type="curve" smooth="yes"/>
      <point x="212" y="568"/>
      <point x="151" y="550"/>
      <point x="91" y="510" type="curve" smooth="yes"/>
      <point x="58" y="489"/>
      <point x="60" y="464"/>
    </contour>
  </outline>
</glyph>
<glyph name="four" format="2">
  <advance width="451"/>
  <unicode hex="0034"/>
  <outline>
    <contour>
      <point x="22" y="177" type="line" smooth="yes"/>
      <point x="15" y="145"/>
      <point x="37" y="122"/>
      <point x="69" y="122" type="curve" smooth="yes"/>
      <point x="95" y="122"/>
      <point x="115" y="140"/>
      <point x="121" y="164" type="curve" smooth="yes"/>
      <point x="204" y="519" type="line" smooth="yes"/>
      <point x="211" y="551"/>
      <point x="184" y="568"/>
      <point x="158" y="568" type="curve" smooth="yes"/>
      <point x="135" y="568"/>
      <point x="110" y="555"/>
      <point x="104" y="527" type="curve" smooth="yes"/>
    </contour>
    <contour>
      <point x="238" y="0" type="curve" smooth="yes"/>
      <point x="266" y="0"/>
      <point x="284" y="16"/>
      <point x="289" y="44" type="curve" smooth="yes"/>
      <point x="333" y="289" type="line" smooth="yes"/>
      <point x="338" y="318"/>
      <point x="325" y="336"/>
      <point x="301" y="341" type="curve" smooth="yes"/>
      <point x="277" y="345"/>
      <point x="247" y="330"/>
      <point x="242" y="302" type="curve" smooth="yes"/>
      <point x="198" y="59" type="line" smooth="yes"/>
      <point x="192" y="26"/>
      <point x="212" y="0"/>
    </contour>
    <contour>
      <point x="441" y="168" type="curve" smooth="yes"/>
      <point x="441" y="192"/>
      <point x="420" y="212"/>
      <point x="392" y="212" type="curve" smooth="yes"/>
      <point x="69" y="212" type="line"/>
      <point x="69" y="122" type="line"/>
      <point x="392" y="122" type="line" smooth="yes"/>
      <point x="420" y="122"/>
      <point x="441" y="143"/>
    </contour>
  </outline>
</glyph>
<glyph name="seven" format="2">
  <advance width="404"/>
  <unicode hex="0037"/>
  <outline>
    <contour>
      <point x="219" y="0" type="curve" smooth="yes"/>
      <point x="242" y="0"/>
      <point x="267" y="15"/>
      <point x="272" y="42" type="curve" smooth="yes"/>
      <point x="356" y="518" type="line" smooth="yes"/>
      <point x="362" y="551"/>
      <point x="346" y="568"/>
      <point x="311" y="568" type="curve"/>
      <point x="261" y="537" type="line"/>
      <point x="175" y="50" type="line" smooth="yes"/>
      <point x="170" y="20"/>
      <point x="192" y="0"/>
    </contour>
    <contour>
      <point x="28" y="527" type="curve" smooth="yes"/>
      <point x="28" y="503"/>
      <point x="48" y="488"/>
      <point x="78" y="488" type="curve" smooth="yes"/>
      <point x="311" y="488" type="line"/>
      <point x="311" y="568" type="line"/>
      <point x="78" y="568" type="line" smooth="yes"/>
      <point x="48" y="568"/>
      <point x="28" y="551"/>
    </contour>
  </outline>
</glyph>
<glyph name="semicolon" format="2">
  <advance width="327"/>
  <unicode hex="003B"/>
  <outline>
    <contour>
      <point x="87" y="-102" type="curve" smooth="yes"/>
      <point x="110" y="-104"/>
      <point x="136" y="-89"/>
      <point x="141" y="-60" type="curve" smooth="yes"/>
      <point x="159" y="39" type="line" smooth="yes"/>
      <point x="165" y="71"/>
      <point x="143" y="91"/>
      <point x="116" y="94" type="curve" smooth="yes"/>
      <point x="91" y="97"/>
      <point x="64" y="83"/>
      <point x="59" y="54" type="curve" smooth="yes"/>
      <point x="42" y="-45" type="line" smooth="yes"/>
      <point x="36" y="-78"/>
      <point x="60" y="-100"/>
    </contour>
    <contour>
      <point x="143" y="217" type="curve" smooth="yes"/>
      <point x="177" y="217"/>
      <point x="207.0" y="249"/>
      <point x="207.0" y="282" type="curve" smooth="yes"/>
      <point x="207.0" y="318"/>
      <point x="177" y="345.0"/>
      <point x="143" y="345.0" type="curve" smooth="yes"/>
      <point x="107" y="345.0"/>
      <point x="81" y="316"/>
      <point x="81" y="282" type="curve" smooth="yes"/>
      <point x="81" y="251"/>
      <point x="107" y="217"/>
    </contour>
  </outline>
</glyph>
<glyph name="equal" format="2">
  <advance width="538"/>
  <unicode hex="003D"/>
  <outline>
    <contour>
      <point x="367" y="248" type="line" smooth="yes"/>
      <point x="397" y="248"/>
      <point x="418" y="266"/>
      <point x="418" y="290" type="curve" smooth="yes"/>
      <point x="418" y="314"/>
      <point x="397" y="333"/>
      <point x="367" y="333" type="curve" smooth="yes"/>
      <point x="149" y="333" type="line" smooth="yes"/>
      <point x="119" y="333"/>
      <point x="98" y="314"/>
      <point x="98" y="290" type="curve" smooth="yes"/>
      <point x="98" y="266"/>
      <point x="119" y="248"/>
      <point x="149" y="248" type="curve" smooth="yes"/>
    </contour>
    <contour>
      <point x="341" y="97" type="line" smooth="yes"/>
      <point x="371" y="97"/>
      <point x="392" y="116"/>
      <point x="392" y="141" type="curve" smooth="yes"/>
      <point x="392" y="165"/>
      <point x="371" y="182"/>
      <point x="341" y="182" type="curve" smooth="yes"/>
      <point x="123" y="182" type="line" smooth="yes"/>
      <point x="93" y="182"/>
      <point x="72" y="165"/>
      <point x="72" y="141" type="curve" smooth="yes"/>
      <point x="72" y="117"/>
      <point x="93" y="97"/>
      <point x="123" y="97" type="curve" smooth="yes"/>
    </contour>
  </outline>
</glyph>
<glyph name="question" format="2">
  <advance width="484"/>
  <unicode hex="003F"/>
  <outline>
    <contour>
      <point x="124" y="434" type="curve" smooth="yes"/>
      <point x="149" y="427"/>
      <point x="184" y="443"/>
      <point x="189" y="476" type="curve" smooth="yes"/>
      <point x="197" y="524"/>
      <point x="222" y="565"/>
      <point x="284" y="565" type="curve" smooth="yes"/>
      <point x="335" y="565"/>
      <point x="365" y="545"/>
      <point x="357" y="504" type="curve" smooth="yes"/>
      <point x="350" y="459"/>
      <point x="330" y="348"/>
      <point x="198" y="356" type="curve"/>
      <point x="176" y="267" type="line"/>
      <point x="351" y="256"/>
      <point x="426" y="353"/>
      <point x="452" y="492" type="curve" smooth="yes"/>
      <point x="467" y="577"/>
      <point x="393" y="654"/>
      <point x="296" y="654" type="curve" smooth="yes"/>
      <point x="179" y="654"/>
      <point x="112" y="586"/>
      <point x="95" y="493" type="curve" smooth="yes"/>
      <point x="88" y="458"/>
      <point x="103" y="439"/>
    </contour>
    <contour>
      <point x="152" y="-12" type="curve" smooth="yes"/>
      <point x="186" y="-12"/>
      <point x="218" y="18"/>
      <point x="218" y="53" type="curve" smooth="yes"/>
      <point x="218" y="87"/>
      <point x="188" y="116"/>
      <point x="153" y="116" type="curve" smooth="yes"/>
      <point x="117" y="116"/>
      <point x="90" y="86"/>
      <point x="90" y="53" type="curve" smooth="yes"/>
      <point x="90" y="20"/>
      <point x="117" y="-12"/>
    </contour>
    <contour>
      <point x="174" y="176" type="curve" smooth="yes"/>
      <point x="200" y="171"/>
      <point x="224" y="193"/>
      <point x="230" y="225" type="curve"/>
      <point x="246" y="313" type="line"/>
      <point x="198" y="356" type="line"/>
      <point x="177" y="356"/>
      <point x="155" y="342"/>
      <point x="151" y="321" type="curve" smooth="yes"/>
      <point x="135" y="233" type="line" smooth="yes"/>
      <point x="130" y="207"/>
      <point x="145" y="182"/>
    </contour>
  </outline>
</glyph>
<glyph name="at" format="2">
  <advance width="698"/>
  <unicode hex="0040"/>
  <outline>
    <contour>
      <point x="223" y="-2" type="curve" smooth="yes"/>
      <point x="286" y="-2"/>
      <point x="348" y="52"/>
      <point x="386" y="97" type="curve" smooth="yes"/>
      <point x="429" y="153"/>
      <point x="480" y="223"/>
      <point x="507" y="307" type="curve"/>
      <point x="460" y="307" type="line"/>
      <point x="433" y="262"/>
      <point x="391" y="204"/>
      <point x="353" y="156" type="curve" smooth="yes"/>
      <point x="300" y="90"/>
      <point x="269" y="86"/>
      <point x="264" y="86" type="curve" smooth="yes"/>
      <point x="259" y="86"/>
      <point x="259" y="105"/>
      <point x="259" y="110" type="curve" smooth="yes"/>
      <point x="259" y="133"/>
      <point x="273" y="195"/>
      <point x="292" y="225" type="curve" smooth="yes"/>
      <point x="314" y="258"/>
      <point x="347" y="265"/>
      <point x="371" y="265" type="curve"/>
      <point x="453" y="265" type="line"/>
      <point x="453" y="350" type="line"/>
      <point x="371" y="350" type="line"/>
      <point x="316" y="350"/>
      <point x="253" y="335"/>
      <point x="215" y="276" type="curve" smooth="yes"/>
      <point x="185" y="229"/>
      <point x="165" y="139"/>
      <point x="165" y="85" type="curve" smooth="yes"/>
      <point x="165" y="25"/>
      <point x="182" y="-2"/>
    </contour>
    <contour>
      <point x="226" y="-128" type="curve" smooth="yes"/>
      <point x="278" y="-128"/>
      <point x="323" y="-116"/>
      <point x="354" y="-96" type="curve" smooth="yes"/>
      <point x="404" y="-65"/>
      <point x="402" y="-43"/>
      <point x="386" y="-19" type="curve" smooth="yes"/>
      <point x="376" y="-4"/>
      <point x="352" y="9"/>
      <point x="320" y="-12" type="curve" smooth="yes"/>
      <point x="285" y="-36"/>
      <point x="252" y="-40"/>
      <point x="222" y="-40" type="curve" smooth="yes"/>
      <point x="142" y="-40"/>
      <point x="107" y="28"/>
      <point x="124" y="127" type="curve" smooth="yes"/>
      <point x="134" y="186"/>
      <point x="155" y="295"/>
      <point x="226" y="349" type="curve" smooth="yes"/>
      <point x="278" y="389"/>
      <point x="356" y="397"/>
      <point x="427" y="397" type="curve" smooth="yes"/>
      <point x="555" y="397"/>
      <point x="591" y="346"/>
      <point x="569" y="249" type="curve" smooth="yes"/>
      <point x="549" y="160"/>
      <point x="482" y="84"/>
      <point x="478" y="84" type="curve" smooth="yes"/>
      <point x="471" y="84"/>
      <point x="476" y="121"/>
      <point x="478" y="131" type="curve" smooth="yes"/>
      <point x="480" y="143"/>
      <point x="483" y="169"/>
      <point x="484" y="175" type="curve" smooth="yes"/>
      <point x="508" y="305" type="line" smooth="yes"/>
      <point x="513" y="333"/>
      <point x="497" y="350"/>
      <point x="469" y="350" type="curve" smooth="yes"/>
      <point x="422" y="350" type="line"/>
      <point x="386" y="153" type="line" smooth="yes"/>
      <point x="382" y="132"/>
      <point x="380" y="106"/>
      <point x="380" y="87" type="curve" smooth="yes"/>
      <point x="380" y="27"/>
      <point x="417" y="-1"/>
      <point x="459" y="-1" type="curve" smooth="yes"/>
      <point x="540" y="-1"/>
      <point x="629" y="97"/>
      <point x="661" y="228" type="curve" smooth="yes"/>
      <point x="700" y="388"/>
      <point x="611" y="487"/>
      <point x="429" y="487" type="curve" smooth="yes"/>
      <point x="346" y="487"/>
      <point x="242" y="473"/>
      <point x="174" y="423" type="curve" smooth="yes"/>
      <point x="80" y="353"/>
      <point x="46" y="227"/>
      <point x="30" y="134" type="curve" smooth="yes"/>
      <point x="6" y="-4"/>
      <point x="47" y="-128"/>
    </contour>
  </outline>
</glyph>
<glyph name="C" format="2">
  <advance width="545"/>
  <unicode hex="0043"/>
  <outline>
    <contour>
      <point x="195" y="-4" type="curve" smooth="yes"/>
      <point x="281" y="-4"/>
      <point x="375" y="47"/>
      <point x="455" y="166" type="curve" smooth="yes"/>
      <point x="479" y="201"/>
      <point x="480" y="210"/>
      <point x="480" y="219" type="curve" smooth="yes"/>
      <point x="480" y="243"/>
      <point x="458" y="259"/>
      <point x="434" y="259" type="curve" smooth="yes"/>
      <point x="411" y="259"/>
      <point x="398" y="248"/>
      <point x="376" y="218" type="curve" smooth="yes"/>
      <point x="305" y="115"/>
      <point x="251" y="85"/>
      <point x="201" y="85" type="curve" smooth="yes"/>
      <point x="165" y="85"/>
      <point x="143" y="113"/>
      <point x="143" y="148" type="curve" smooth="yes"/>
      <point x="143" y="214"/>
      <point x="161" y="308"/>
      <point x="167" y="343" type="curve" smooth="yes"/>
      <point x="188" y="454"/>
      <point x="229" y="561"/>
      <point x="433" y="561" type="curve" smooth="yes"/>
      <point x="488" y="561"/>
      <point x="514" y="563"/>
      <point x="528" y="571" type="curve" smooth="yes"/>
      <point x="554" y="587"/>
      <point x="556" y="623"/>
      <point x="531" y="641" type="curve" smooth="yes"/>
      <point x="518" y="650"/>
      <point x="490" y="650"/>
      <point x="434" y="650" type="curve" smooth="yes"/>
      <point x="158" y="650"/>
      <point x="92" y="494"/>
      <point x="65" y="341" type="curve" smooth="yes"/>
      <point x="61" y="321"/>
      <point x="43" y="212"/>
      <point x="43" y="149" type="curve" smooth="yes"/>
      <point x="43" y="80"/>
      <point x="82" y="-4"/>
    </contour>
  </outline>
</glyph>
<glyph name="D" format="2">
  <advance width="566"/>
  <unicode hex="0044"/>
  <outline>
    <contour>
      <point x="516" y="351" type="curve" smooth="yes"/>
      <point x="539" y="523"/>
      <point x="418" y="650"/>
      <point x="226" y="650" type="curve" smooth="yes"/>
      <point x="176" y="650" type="line"/>
      <point x="168" y="561" type="line"/>
      <point x="231" y="561" type="line" smooth="yes"/>
      <point x="369" y="561"/>
      <point x="435" y="473"/>
      <point x="419" y="350" type="curve" smooth="yes"/>
      <point x="396" y="177"/>
      <point x="292" y="89"/>
      <point x="149" y="89" type="curve" smooth="yes"/>
      <point x="89" y="89" type="line"/>
      <point x="71" y="0" type="line"/>
      <point x="149" y="0" type="line" smooth="yes"/>
      <point x="342" y="0"/>
      <point x="486" y="129"/>
    </contour>
    <contour>
      <point x="26" y="49" type="line" smooth="yes"/>
      <point x="21" y="21"/>
      <point x="41" y="0"/>
      <point x="73" y="0" type="curve" smooth="yes"/>
      <point x="100" y="0"/>
      <point x="121" y="15"/>
      <point x="126" y="41" type="curve" smooth="yes"/>
      <point x="225" y="600" type="line" smooth="yes"/>
      <point x="232" y="641"/>
      <point x="205" y="650"/>
      <point x="177" y="650" type="curve" smooth="yes"/>
      <point x="145" y="650"/>
      <point x="130" y="636"/>
      <point x="125" y="609" type="curve" smooth="yes"/>
    </contour>
  </outline>
</glyph>
<glyph name="F" format="2">
  <advance width="534"/>
  <unicode hex="0046"/>
  <outline>
    <contour>
      <point x="27" y="54" type="line" smooth="yes"/>
      <point x="22" y="27"/>
      <point x="30" y="0"/>
      <point x="62" y="0" type="curve" smooth="yes"/>
      <point x="100" y="0"/>
      <point x="122" y="21"/>
      <point x="127" y="51" type="curve" smooth="yes"/>
      <point x="223" y="597" type="line" smooth="yes"/>
      <point x="230" y="638"/>
      <point x="204" y="650"/>
      <point x="176" y="650" type="curve" smooth="yes"/>
      <point x="145" y="650"/>
      <point x="130" y="638"/>
      <point x="125" y="610" type="curve" smooth="yes"/>
    </contour>
    <contour>
      <point x="472" y="308" type="curve" smooth="yes"/>
      <point x="472" y="334"/>
      <point x="457" y="356"/>
      <point x="425" y="356" type="curve" smooth="yes"/>
      <point x="129" y="356" type="line"/>
      <point x="113" y="265" type="line"/>
      <point x="423" y="265" type="line" smooth="yes"/>
      <point x="455" y="265"/>
      <point x="472" y="284"/>
    </contour>
    <contour>
      <point x="550" y="604" type="curve" smooth="yes"/>
      <point x="550" y="632"/>
      <point x="532" y="650"/>
      <point x="501" y="650" type="curve" smooth="yes"/>
      <point x="176" y="650" type="line"/>
      <point x="157" y="555" type="line"/>
      <point x="496" y="555" type="line" smooth="yes"/>
      <point x="526" y="555"/>
      <point x="550" y="575"/>
    </contour>
  </outline>
</glyph>
<glyph name="G" format="2">
  <advance width="525"/>
  <unicode hex="0047"/>
  <outline>
    <contour>
      <point x="151" y="-4" type="curve" smooth="yes"/>
      <point x="258" y="-4"/>
      <point x="357" y="153"/>
      <point x="428" y="265" type="curve"/>
      <point x="438" y="370" type="line"/>
      <point x="400" y="370"/>
      <point x="394" y="361"/>
      <point x="336" y="271" type="curve" smooth="yes"/>
      <point x="301" y="217"/>
      <point x="214" y="85"/>
      <point x="163" y="85" type="curve" smooth="yes"/>
      <point x="147" y="85"/>
      <point x="141" y="114"/>
      <point x="141" y="155" type="curve" smooth="yes"/>
      <point x="141" y="214"/>
      <point x="159" y="304"/>
      <point x="168" y="354" type="curve" smooth="yes"/>
      <point x="185" y="450"/>
      <point x="224" y="561"/>
      <point x="428" y="561" type="curve" smooth="yes"/>
      <point x="481" y="561" type="line" smooth="yes"/>
      <point x="508" y="561"/>
      <point x="529" y="582"/>
      <point x="529" y="607" type="curve" smooth="yes"/>
      <point x="529" y="631"/>
      <point x="509" y="650"/>
      <point x="484" y="650" type="curve" smooth="yes"/>
      <point x="429" y="650" type="line" smooth="yes"/>
      <point x="153" y="650"/>
      <point x="92" y="494"/>
      <point x="65" y="341" type="curve" smooth="yes"/>
      <point x="61" y="321"/>
      <point x="43" y="212"/>
      <point x="43" y="151" type="curve" smooth="yes"/>
      <point x="43" y="79"/>
      <point x="67" y="-4"/>
    </contour>
    <contour>
      <point x="382" y="0" type="curve" smooth="yes"/>
      <point x="417" y="0"/>
      <point x="426" y="18"/>
      <point x="430" y="42" type="curve" smooth="yes"/>
      <point x="479" y="320" type="line" smooth="yes"/>
      <point x="484" y="351"/>
      <point x="468" y="370"/>
      <point x="437" y="370" type="curve" smooth="yes"/>
      <point x="398" y="370"/>
      <point x="385" y="343"/>
      <point x="382" y="327" type="curve" smooth="yes"/>
      <point x="333" y="49" type="line" smooth="yes"/>
      <point x="328" y="18"/>
      <point x="348" y="0"/>
    </contour>
  </outline>
</glyph>
<glyph name="I" format="2">
  <advance width="326"/>
  <unicode hex="0049"/>
  <outline>
    <contour>
      <point x="70" y="65" type="line"/>
      <point x="171" y="65" type="line"/>
      <point x="260" y="584" type="line"/>
      <point x="159" y="584" type="line"/>
    </contour>
    <contour>
      <point x="24" y="39" type="curve" smooth="yes"/>
      <point x="20" y="15"/>
      <point x="36" y="0"/>
      <point x="61" y="0" type="curve" smooth="yes"/>
      <point x="159" y="0" type="line" smooth="yes"/>
      <point x="192" y="0"/>
      <point x="203" y="15"/>
      <point x="207" y="39" type="curve" smooth="yes"/>
      <point x="211" y="63"/>
      <point x="198" y="78"/>
      <point x="173" y="78" type="curve" smooth="yes"/>
      <point x="75" y="78" type="line" smooth="yes"/>
      <point x="43" y="78"/>
      <point x="28" y="63"/>
    </contour>
    <contour>
      <point x="126" y="612" type="curve" smooth="yes"/>
      <point x="122" y="588"/>
      <point x="138" y="570"/>
      <point x="161" y="570" type="curve" smooth="yes"/>
      <point x="259" y="570" type="line" smooth="yes"/>
      <point x="291" y="570"/>
      <point x="305" y="588"/>
      <point x="309" y="612" type="curve" smooth="yes"/>
      <point x="313" y="636"/>
      <point x="296" y="650"/>
      <point x="273" y="650" type="curve" smooth="yes"/>
      <point x="175" y="650" type="line" smooth="yes"/>
      <point x="144" y="650"/>
      <point x="130" y="636"/>
    </contour>
  </outline>
</glyph>
<glyph name="J" format="2">
  <advance width="490"/>
  <unicode hex="004A"/>
  <outline>
    <contour>
      <point x="-41" y="45" type="curve" smooth="yes"/>
      <point x="-41" y="18"/>
      <point x="-16" y="0"/>
      <point x="8" y="0" type="curve" smooth="yes"/>
      <point x="38" y="0"/>
      <point x="114" y="2"/>
      <point x="132" y="4" type="curve" smooth="yes"/>
      <point x="262" y="19"/>
      <point x="307" y="123"/>
      <point x="337" y="294" type="curve" smooth="yes"/>
      <point x="390" y="597" type="line"/>
      <point x="288" y="597" type="line"/>
      <point x="238" y="306" type="line" smooth="yes"/>
      <point x="212" y="154"/>
      <point x="183" y="101"/>
      <point x="130" y="95" type="curve" smooth="yes"/>
      <point x="106" y="92"/>
      <point x="29" y="90"/>
      <point x="8" y="90" type="curve" smooth="yes"/>
      <point x="-16" y="90"/>
      <point x="-41" y="71"/>
    </contour>
    <contour>
      <point x="149" y="602" type="curve" smooth="yes"/>
      <point x="149" y="574"/>
      <point x="168" y="555"/>
      <point x="198" y="555" type="curve" smooth="yes"/>
      <point x="486" y="555" type="line" smooth="yes"/>
      <point x="518" y="555"/>
      <point x="536" y="576"/>
      <point x="536" y="602" type="curve" smooth="yes"/>
      <point x="536" y="630"/>
      <point x="517" y="650"/>
      <point x="487" y="650" type="curve" smooth="yes"/>
      <point x="199" y="650" type="line" smooth="yes"/>
      <point x="168" y="650"/>
      <point x="149" y="629"/>
    </contour>
  </outline>
</glyph>
<glyph name="K" format="2">
  <advance width="531"/>
  <unicode hex="004B"/>
  <outline>
    <contour>
      <point x="534" y="604" type="curve" smooth="yes"/>
      <point x="537" y="627"/>
      <point x="522" y="650"/>
      <point x="493" y="650" type="curve" smooth="yes"/>
      <point x="477" y="650"/>
      <point x="457" y="645"/>
      <point x="441" y="631" type="curve" smooth="yes"/>
      <point x="232" y="446" type="line"/>
      <point x="143" y="358" type="line"/>
      <point x="143" y="326" type="line"/>
      <point x="226" y="318" type="line"/>
      <point x="509" y="562" type="line" smooth="yes"/>
      <point x="523" y="574"/>
      <point x="532" y="589"/>
    </contour>
    <contour>
      <point x="409" y="0" type="curve" smooth="yes"/>
      <point x="429" y="0"/>
      <point x="452" y="10"/>
      <point x="456" y="31" type="curve" smooth="yes"/>
      <point x="459" y="44"/>
      <point x="458" y="60"/>
      <point x="448" y="74" type="curve" smooth="yes"/>
      <point x="243" y="368" type="line"/>
      <point x="143" y="382" type="line"/>
      <point x="142" y="348" type="line"/>
      <point x="189" y="271" type="line"/>
      <point x="360" y="25" type="line" smooth="yes"/>
      <point x="371" y="9"/>
      <point x="390" y="0"/>
    </contour>
    <contour>
      <point x="75" y="0" type="curve" smooth="yes"/>
      <point x="106" y="0"/>
      <point x="122" y="19"/>
      <point x="127" y="45" type="curve" smooth="yes"/>
      <point x="225" y="597" type="line" smooth="yes"/>
      <point x="232" y="636"/>
      <point x="205" y="650"/>
      <point x="181" y="650" type="curve" smooth="yes"/>
      <point x="155" y="650"/>
      <point x="131" y="637"/>
      <point x="126" y="609" type="curve" smooth="yes"/>
      <point x="27" y="54" type="line" smooth="yes"/>
      <point x="22" y="24"/>
      <point x="43" y="0"/>
    </contour>
  </outline>
</glyph>
<glyph name="L" format="2">
  <advance width="511"/>
  <unicode hex="004C"/>
  <outline>
    <contour>
      <point x="26" y="49" type="line" smooth="yes"/>
      <point x="21" y="21"/>
      <point x="39" y="0"/>
      <point x="69" y="0" type="curve" smooth="yes"/>
      <point x="103" y="0"/>
      <point x="122" y="18"/>
      <point x="126" y="39" type="curve" smooth="yes"/>
      <point x="225" y="597" type="line" smooth="yes"/>
      <point x="232" y="639"/>
      <point x="208" y="650"/>
      <point x="183" y="650" type="curve" smooth="yes"/>
      <point x="154" y="650"/>
      <point x="130" y="637"/>
      <point x="125" y="609" type="curve" smooth="yes"/>
    </contour>
    <contour>
      <point x="465" y="46" type="curve" smooth="yes"/>
      <point x="465" y="70"/>
      <point x="445" y="90"/>
      <point x="415" y="90" type="curve" smooth="yes"/>
      <point x="86" y="90" type="line"/>
      <point x="70" y="0" type="line"/>
      <point x="415" y="0" type="line" smooth="yes"/>
      <point x="445" y="0"/>
      <point x="465" y="22"/>
    </contour>
  </outline>
</glyph>
<glyph name="M" format="2">
  <advance width="827"/>
  <unicode hex="004D"/>
  <outline>
    <contour>
      <point x="14" y="0" type="curve" smooth="yes"/>
      <point x="32" y="0"/>
      <point x="60" y="9"/>
      <point x="72" y="33" type="curve" smooth="yes"/>
      <point x="256" y="392" type="line"/>
      <point x="331" y="555" type="line"/>
      <point x="312" y="650" type="line"/>
      <point x="284" y="650"/>
      <point x="275" y="638"/>
      <point x="264" y="617" type="curve" smooth="yes"/>
      <point x="-21" y="73" type="line" smooth="yes"/>
      <point x="-34" y="47"/>
      <point x="-33" y="34"/>
      <point x="-26" y="21" type="curve" smooth="yes"/>
      <point x="-19" y="8"/>
      <point x="-1" y="0"/>
    </contour>
    <contour>
      <point x="312" y="50" type="line" smooth="yes"/>
      <point x="315" y="18"/>
      <point x="332" y="0"/>
      <point x="363" y="0" type="curve"/>
      <point x="401" y="90" type="line"/>
      <point x="390" y="277" type="line"/>
      <point x="363" y="606" type="line" smooth="yes"/>
      <point x="361" y="635"/>
      <point x="352" y="650"/>
      <point x="312" y="650" type="curve"/>
      <point x="280" y="559" type="line"/>
      <point x="283" y="393" type="line"/>
    </contour>
    <contour>
      <point x="424" y="41" type="curve" smooth="yes"/>
      <point x="601" y="392" type="line"/>
      <point x="675" y="566" type="line"/>
      <point x="672" y="650" type="line"/>
      <point x="641" y="650"/>
      <point x="624" y="638"/>
      <point x="612" y="616" type="curve" smooth="yes"/>
      <point x="430" y="271" type="line"/>
      <point x="352" y="86" type="line"/>
      <point x="363" y="0" type="line"/>
      <point x="402" y="0"/>
      <point x="413" y="19"/>
    </contour>
    <contour>
      <point x="714" y="0" type="curve" smooth="yes"/>
      <point x="743" y="0"/>
      <point x="762" y="20"/>
      <point x="759" y="52" type="curve" smooth="yes"/>
      <point x="714" y="606" type="line" smooth="yes"/>
      <point x="712" y="635"/>
      <point x="706" y="650"/>
      <point x="672" y="650" type="curve"/>
      <point x="627" y="562" type="line"/>
      <point x="634" y="390" type="line"/>
      <point x="663" y="46" type="line" smooth="yes"/>
      <point x="665" y="19"/>
      <point x="683" y="0"/>
    </contour>
  </outline>
</glyph>
<glyph name="N" format="2">
  <advance width="574"/>
  <unicode hex="004E"/>
  <outline>
    <contour>
      <point x="355" y="28" type="line" smooth="yes"/>
      <point x="362" y="10"/>
      <point x="378" y="0"/>
      <point x="404" y="0" type="curve"/>
      <point x="410" y="129" type="line"/>
      <point x="362" y="266" type="line"/>
      <point x="218" y="620" type="line" smooth="yes"/>
      <point x="210" y="641"/>
      <point x="191" y="650"/>
      <point x="171" y="650" type="curve"/>
      <point x="142" y="569" type="line"/>
      <point x="211" y="382" type="line"/>
    </contour>
    <contour>
      <point x="69" y="0" type="curve" smooth="yes"/>
      <point x="102" y="0"/>
      <point x="122" y="19"/>
      <point x="126" y="42" type="curve" smooth="yes"/>
      <point x="186" y="383" type="line"/>
      <point x="216" y="592" type="line"/>
      <point x="171" y="650" type="line"/>
      <point x="146" y="650"/>
      <point x="129" y="636"/>
      <point x="124" y="609" type="curve" smooth="yes"/>
      <point x="26" y="49" type="line" smooth="yes"/>
      <point x="21" y="21"/>
      <point x="40" y="0"/>
    </contour>
    <contour>
      <point x="505" y="653" type="curve" smooth="yes"/>
      <point x="477" y="653"/>
      <point x="454" y="637"/>
      <point x="449" y="609" type="curve" smooth="yes"/>
      <point x="389" y="267" type="line"/>
      <point x="364" y="105" type="line"/>
      <point x="404" y="0" type="line"/>
      <point x="433" y="0"/>
      <point x="445" y="14"/>
      <point x="450" y="40" type="curve" smooth="yes"/>
      <point x="548" y="597" type="line" smooth="yes"/>
      <point x="554" y="629"/>
      <point x="538" y="653"/>
    </contour>
  </outline>
</glyph>
<glyph name="P" format="2">
  <advance width="548"/>
  <unicode hex="0050"/>
  <outline>
    <contour>
      <point x="535" y="467" type="curve" smooth="yes"/>
      <point x="554" y="602"/>
      <point x="426" y="656"/>
      <point x="177" y="652" type="curve"/>
      <point x="160" y="562" type="line"/>
      <point x="387" y="565"/>
      <point x="446" y="535"/>
      <point x="438" y="472" type="curve" smooth="yes"/>
      <point x="427" y="382"/>
      <point x="288" y="364"/>
      <point x="137" y="364" type="curve"/>
      <point x="125" y="274" type="line"/>
      <point x="317" y="274"/>
      <point x="510" y="289"/>
    </contour>
    <contour>
      <point x="72" y="-6" type="curve" smooth="yes"/>
      <point x="106" y="-6"/>
      <point x="119" y="17"/>
      <point x="123" y="39" type="curve" smooth="yes"/>
      <point x="221" y="597" type="line" smooth="yes"/>
      <point x="228" y="639"/>
      <point x="202" y="652"/>
      <point x="177" y="652" type="curve" smooth="yes"/>
      <point x="147" y="652"/>
      <point x="129" y="637"/>
      <point x="124" y="609" type="curve" smooth="yes"/>
      <point x="25" y="48" type="line" smooth="yes"/>
      <point x="20" y="21"/>
      <point x="39" y="-6"/>
    </contour>
  </outline>
</glyph>
<glyph name="R" format="2">
  <advance width="549"/>
  <unicode hex="0052"/>
  <outline>
    <contour>
      <point x="520" y="467" type="curve" smooth="yes"/>
      <point x="544" y="602"/>
      <point x="407" y="650"/>
      <point x="181" y="650" type="curve"/>
      <point x="200" y="560" type="line"/>
      <point x="376" y="563"/>
      <point x="434" y="533"/>
      <point x="423" y="470" type="curve" smooth="yes"/>
      <point x="408" y="382"/>
      <point x="286" y="345"/>
      <point x="139" y="344" type="curve"/>
      <point x="126" y="272" type="line"/>
      <point x="314" y="273"/>
      <point x="488" y="289"/>
    </contour>
    <contour>
      <point x="414" y="0" type="curve" smooth="yes"/>
      <point x="433" y="0"/>
      <point x="454" y="11"/>
      <point x="459" y="29" type="curve" smooth="yes"/>
      <point x="463" y="42"/>
      <point x="464" y="57"/>
      <point x="454" y="69" type="curve" smooth="yes"/>
      <point x="247" y="318" type="line"/>
      <point x="138" y="318" type="line"/>
      <point x="185" y="237" type="line"/>
      <point x="362" y="23" type="line" smooth="yes"/>
      <point x="379" y="3"/>
      <point x="401" y="0"/>
    </contour>
    <contour>
      <point x="66" y="0" type="curve" smooth="yes"/>
      <point x="97" y="0"/>
      <point x="123" y="23"/>
      <point x="128" y="53" type="curve" smooth="yes"/>
      <point x="224" y="597" type="line" smooth="yes"/>
      <point x="231" y="638"/>
      <point x="208" y="650"/>
      <point x="180" y="650" type="curve" smooth="yes"/>
      <point x="149" y="650"/>
      <point x="130" y="637"/>
      <point x="125" y="609" type="curve" smooth="yes"/>
      <point x="27" y="54" type="line" smooth="yes"/>
      <point x="22" y="24"/>
      <point x="34" y="0"/>
    </contour>
  </outline>
</glyph>
<glyph name="T" format="2">
  <advance width="499"/>
  <unicode hex="0054"/>
  <outline>
    <contour>
      <point x="197" y="-2" type="curve" smooth="yes"/>
      <point x="230" y="-2"/>
      <point x="246" y="18"/>
      <point x="250" y="39" type="curve" smooth="yes"/>
      <point x="347" y="601" type="line"/>
      <point x="246" y="601" type="line"/>
      <point x="150" y="49" type="line" smooth="yes"/>
      <point x="145" y="21"/>
      <point x="166" y="-2"/>
    </contour>
    <contour>
      <point x="37" y="607" type="curve" smooth="yes"/>
      <point x="37" y="583"/>
      <point x="55" y="563"/>
      <point x="87" y="563" type="curve" smooth="yes"/>
      <point x="511" y="563" type="line" smooth="yes"/>
      <point x="543" y="563"/>
      <point x="561" y="583"/>
      <point x="561" y="607" type="curve" smooth="yes"/>
      <point x="561" y="633"/>
      <point x="541" y="653"/>
      <point x="511" y="653" type="curve" smooth="yes"/>
      <point x="87" y="653" type="line" smooth="yes"/>
      <point x="57" y="653"/>
      <point x="37" y="633"/>
    </contour>
  </outline>
</glyph>
<glyph name="U" format="2">
  <advance width="584"/>
  <unicode hex="0055"/>
  <outline>
    <contour>
      <point x="141" y="-4" type="curve" smooth="yes"/>
      <point x="259" y="-4"/>
      <point x="369" y="166"/>
      <point x="446" y="326" type="curve"/>
      <point x="497" y="385" type="line"/>
      <point x="531" y="543" type="line"/>
      <point x="447" y="543" type="line"/>
      <point x="437" y="486"/>
      <point x="390" y="372"/>
      <point x="364" y="323" type="curve" smooth="yes"/>
      <point x="335" y="268"/>
      <point x="226" y="86"/>
      <point x="157" y="86" type="curve" smooth="yes"/>
      <point x="138" y="86"/>
      <point x="140" y="125"/>
      <point x="151" y="185" type="curve" smooth="yes"/>
      <point x="225" y="600" type="line" smooth="yes"/>
      <point x="230" y="629"/>
      <point x="209" y="650"/>
      <point x="180" y="650" type="curve" smooth="yes"/>
      <point x="148" y="651"/>
      <point x="128" y="624"/>
      <point x="125" y="606" type="curve" smooth="yes"/>
      <point x="51" y="195" type="line" smooth="yes"/>
      <point x="26" y="57"/>
      <point x="68" y="-4"/>
    </contour>
    <contour>
      <point x="407" y="0" type="curve" smooth="yes"/>
      <point x="430" y="0"/>
      <point x="456" y="12"/>
      <point x="460" y="37" type="curve" smooth="yes"/>
      <point x="559" y="602" type="line" smooth="yes"/>
      <point x="564" y="630"/>
      <point x="546" y="650"/>
      <point x="512" y="650" type="curve" smooth="yes"/>
      <point x="484" y="650"/>
      <point x="463" y="635"/>
      <point x="459" y="612" type="curve" smooth="yes"/>
      <point x="361" y="49" type="line" smooth="yes"/>
      <point x="355" y="16"/>
      <point x="379" y="0"/>
    </contour>
  </outline>
</glyph>
<glyph name="V" format="2">
  <advance width="460"/>
  <unicode hex="0056"/>
  <outline>
    <contour>
      <point x="210" y="34" type="curve" smooth="yes"/>
      <point x="486" y="591" type="line" smooth="yes"/>
      <point x="503" y="625"/>
      <point x="481" y="650"/>
      <point x="449" y="650" type="curve" smooth="yes"/>
      <point x="420" y="650"/>
      <point x="401" y="638"/>
      <point x="391" y="618" type="curve" smooth="yes"/>
      <point x="212" y="256" type="line"/>
      <point x="132" y="59" type="line"/>
      <point x="159" y="-2" type="line"/>
      <point x="188" y="-2"/>
      <point x="200" y="15"/>
    </contour>
    <contour>
      <point x="109" y="44" type="line" smooth="yes"/>
      <point x="110" y="19"/>
      <point x="129" y="-2"/>
      <point x="159" y="-2" type="curve"/>
      <point x="188" y="64" type="line"/>
      <point x="193" y="259" type="line"/>
      <point x="174" y="610" type="line" smooth="yes"/>
      <point x="173" y="633"/>
      <point x="155" y="650"/>
      <point x="123" y="650" type="curve" smooth="yes"/>
      <point x="94" y="650"/>
      <point x="75" y="634"/>
      <point x="77" y="604" type="curve" smooth="yes"/>
    </contour>
  </outline>
</glyph>
<glyph name="W" format="2">
  <advance width="800"/>
  <unicode hex="0057"/>
  <outline>
    <contour>
      <point x="555" y="33" type="curve" smooth="yes"/>
      <point x="828" y="585" type="line" smooth="yes"/>
      <point x="843" y="616"/>
      <point x="821" y="650"/>
      <point x="797" y="650" type="curve" smooth="yes"/>
      <point x="763" y="650"/>
      <point x="745" y="636"/>
      <point x="735" y="615" type="curve" smooth="yes"/>
      <point x="567" y="263" type="line"/>
      <point x="478" y="74" type="line"/>
      <point x="505" y="0" type="line"/>
      <point x="533" y="0"/>
      <point x="545" y="12"/>
    </contour>
    <contour>
      <point x="115" y="44" type="line" smooth="yes"/>
      <point x="117" y="15"/>
      <point x="136" y="0"/>
      <point x="169" y="0" type="curve"/>
      <point x="199" y="75" type="line"/>
      <point x="194" y="256" type="line"/>
      <point x="174" y="610" type="line" smooth="yes"/>
      <point x="173" y="633"/>
      <point x="156" y="650"/>
      <point x="124" y="650" type="curve" smooth="yes"/>
      <point x="95" y="650"/>
      <point x="75" y="634"/>
      <point x="77" y="604" type="curve" smooth="yes"/>
    </contour>
    <contour>
      <point x="220" y="39" type="curve" smooth="yes"/>
      <point x="394" y="388" type="line"/>
      <point x="484" y="578" type="line"/>
      <point x="455" y="650" type="line"/>
      <point x="421" y="650"/>
      <point x="412" y="631"/>
      <point x="406" y="619" type="curve" smooth="yes"/>
      <point x="226" y="257" type="line"/>
      <point x="141" y="75" type="line"/>
      <point x="169" y="0" type="line"/>
      <point x="200" y="0"/>
      <point x="208" y="14"/>
    </contour>
    <contour>
      <point x="456" y="38" type="line" smooth="yes"/>
      <point x="458" y="15"/>
      <point x="485" y="0"/>
      <point x="505" y="0" type="curve"/>
      <point x="540" y="74" type="line"/>
      <point x="534" y="267" type="line"/>
      <point x="508" y="610" type="line" smooth="yes"/>
      <point x="506" y="635"/>
      <point x="490" y="650"/>
      <point x="455" y="650" type="curve"/>
      <point x="423" y="582" type="line"/>
      <point x="429" y="385" type="line"/>
    </contour>
  </outline>
</glyph>
<glyph name="X" format="2">
  <advance width="465"/>
  <unicode hex="0058"/>
  <outline>
    <contour>
      <point x="-7" y="13" type="curve" smooth="yes"/>
      <point x="12" y="-3"/>
      <point x="52" y="-8"/>
      <point x="69" y="16" type="curve" smooth="yes"/>
      <point x="472" y="578" type="line" smooth="yes"/>
      <point x="489" y="602"/>
      <point x="485" y="623"/>
      <point x="467" y="639" type="curve" smooth="yes"/>
      <point x="449" y="655"/>
      <point x="413" y="656"/>
      <point x="395" y="631" type="curve" smooth="yes"/>
      <point x="-10" y="69" type="line" smooth="yes"/>
      <point x="-25" y="48"/>
      <point x="-25" y="29"/>
    </contour>
    <contour>
      <point x="364" y="6" type="curve" smooth="yes"/>
      <point x="385" y="17"/>
      <point x="395" y="36"/>
      <point x="385" y="61" type="curve" smooth="yes"/>
      <point x="173" y="623" type="line" smooth="yes"/>
      <point x="162" y="651"/>
      <point x="130" y="654"/>
      <point x="107" y="647" type="curve" smooth="yes"/>
      <point x="81" y="637"/>
      <point x="72" y="617"/>
      <point x="84" y="586" type="curve" smooth="yes"/>
      <point x="292" y="28" type="line" smooth="yes"/>
      <point x="303" y="-1"/>
      <point x="341" y="-6"/>
    </contour>
  </outline>
</glyph>
<glyph name="Y" format="2">
  <advance width="457"/>
  <unicode hex="0059"/>
  <outline>
    <contour>
      <point x="471" y="646" type="curve" smooth="yes"/>
      <point x="451" y="659"/>
      <point x="421" y="659"/>
      <point x="401" y="632" type="curve" smooth="yes"/>
      <point x="265" y="448" type="line"/>
      <point x="196" y="350" type="line"/>
      <point x="237" y="254" type="line"/>
      <point x="479" y="578" type="line" smooth="yes"/>
      <point x="500" y="606"/>
      <point x="490" y="633"/>
    </contour>
    <contour>
      <point x="184" y="-2" type="curve" smooth="yes"/>
      <point x="218" y="-2"/>
      <point x="232" y="19"/>
      <point x="236" y="40" type="curve" smooth="yes"/>
      <point x="293" y="371" type="line"/>
      <point x="192" y="371" type="line"/>
      <point x="136" y="49" type="line" smooth="yes"/>
      <point x="131" y="21"/>
      <point x="152" y="-2"/>
    </contour>
    <contour>
      <point x="104" y="649" type="curve" smooth="yes"/>
      <point x="83" y="639"/>
      <point x="70" y="617"/>
      <point x="81" y="588" type="curve" smooth="yes"/>
      <point x="208" y="266" type="line"/>
      <point x="275" y="340" type="line"/>
      <point x="236" y="450" type="line"/>
      <point x="170" y="621" type="line" smooth="yes"/>
      <point x="157" y="654"/>
      <point x="127" y="660"/>
    </contour>
  </outline>
</glyph>
<glyph name="Z" format="2">
  <advance width="474"/>
  <unicode hex="005A"/>
  <outline>
    <contour>
      <point x="-8" y="76" type="line" smooth="yes"/>
      <point x="-35" y="40"/>
      <point x="-6" y="0"/>
      <point x="24" y="0" type="curve" smooth="yes"/>
      <point x="49" y="0"/>
      <point x="62" y="10"/>
      <point x="67" y="17" type="curve" smooth="yes"/>
      <point x="485" y="577" type="line" smooth="yes"/>
      <point x="511" y="612"/>
      <point x="487" y="653"/>
      <point x="446" y="653" type="curve" smooth="yes"/>
      <point x="430" y="653"/>
      <point x="417" y="644"/>
      <point x="409" y="633" type="curve" smooth="yes"/>
    </contour>
    <contour>
      <point x="406" y="43" type="curve" smooth="yes"/>
      <point x="406" y="69"/>
      <point x="386" y="90"/>
      <point x="356" y="90" type="curve" smooth="yes"/>
      <point x="169" y="90" type="line"/>
      <point x="24" y="77" type="line"/>
      <point x="24" y="0" type="line"/>
      <point x="356" y="0" type="line" smooth="yes"/>
      <point x="388" y="0"/>
      <point x="406" y="19"/>
    </contour>
    <contour>
      <point x="80" y="607" type="curve" smooth="yes"/>
      <point x="80" y="583"/>
      <point x="98" y="563"/>
      <point x="130" y="563" type="curve" smooth="yes"/>
      <point x="309" y="563" type="line"/>
      <point x="446" y="573" type="line"/>
      <point x="446" y="653" type="line"/>
      <point x="130" y="653" type="line" smooth="yes"/>
      <point x="100" y="653"/>
      <point x="80" y="633"/>
    </contour>
  </outline>
</glyph>
<glyph name="backslash" format="2">
  <advance width="464"/>
  <unicode hex="005C"/>
  <outline>
    <contour>
      <point x="175" y="614" type="line" smooth="yes"/>
      <point x="160" y="648"/>
      <point x="129" y="655"/>
      <point x="104" y="646" type="curve" smooth="yes"/>
      <point x="82" y="638"/>
      <point x="68" y="608"/>
      <point x="83" y="574" type="curve" smooth="yes"/>
      <point x="340" y="-16" type="line" smooth="yes"/>
      <point x="354" y="-47"/>
      <point x="387" y="-54"/>
      <point x="412" y="-44" type="curve" smooth="yes"/>
      <point x="433" y="-35"/>
      <point x="445" y="-7"/>
      <point x="433" y="21" type="curve" smooth="yes"/>
    </contour>
  </outline>
</glyph>
<glyph name="grave" format="2">
  <advance width="382"/>
  <unicode hex="0060"/>
  <outline>
    <contour>
      <point x="295" y="519" type="curve" smooth="yes"/>
      <point x="314" y="530"/>
      <point x="317" y="547"/>
      <point x="306" y="573" type="curve" smooth="yes"/>
      <point x="271" y="657" type="line" smooth="yes"/>
      <point x="258" y="690"/>
      <point x="234" y="700"/>
      <point x="207" y="700.0" type="curve" smooth="yes"/>
      <point x="179" y="700"/>
      <point x="156" y="661"/>
      <point x="176" y="630" type="curve" smooth="yes"/>
      <point x="233" y="542" type="line" smooth="yes"/>
      <point x="251" y="515"/>
      <point x="276" y="508"/>
    </contour>
  </outline>
</glyph>
<glyph name="a" format="2">
  <advance width="400"/>
  <unicode hex="0061"/>
  <outline>
    <contour>
      <point x="58" y="-4" type="curve" smooth="yes"/>
      <point x="122" y="-4"/>
      <point x="199" y="60"/>
      <point x="243" y="134" type="curve"/>
      <point x="278" y="192"/>
      <point x="318" y="249"/>
      <point x="345" y="308" type="curve"/>
      <point x="277" y="308" type="line"/>
      <point x="251" y="262"/>
      <point x="224" y="215"/>
      <point x="186" y="167" type="curve" smooth="yes"/>
      <point x="133" y="101"/>
      <point x="106" y="84"/>
      <point x="101" y="84" type="curve" smooth="yes"/>
      <point x="96" y="84"/>
      <point x="95" y="97"/>
      <point x="95" y="102" type="curve" smooth="yes"/>
      <point x="95" y="134"/>
      <point x="110" y="194"/>
      <point x="129" y="224" type="curve" smooth="yes"/>
      <point x="151" y="257"/>
      <point x="184" y="263"/>
      <point x="210" y="263" type="curve" smooth="yes"/>
      <point x="296" y="263" type="line"/>
      <point x="296" y="350" type="line"/>
      <point x="210" y="350" type="line" smooth="yes"/>
      <point x="154" y="350"/>
      <point x="92" y="333"/>
      <point x="53" y="276" type="curve" smooth="yes"/>
      <point x="22" y="228"/>
      <point x="1" y="139"/>
      <point x="1" y="85" type="curve" smooth="yes"/>
      <point x="1" y="22"/>
      <point x="19" y="-4"/>
    </contour>
    <contour>
      <point x="257" y="0" type="curve" smooth="yes"/>
      <point x="293" y="0"/>
      <point x="305" y="22"/>
      <point x="308" y="37" type="curve" smooth="yes"/>
      <point x="353" y="295" type="line" smooth="yes"/>
      <point x="359" y="328"/>
      <point x="342" y="350"/>
      <point x="315" y="350" type="curve" smooth="yes"/>
      <point x="250" y="350" type="line"/>
      <point x="250" y="252" type="line"/>
      <point x="213" y="44" type="line" smooth="yes"/>
      <point x="209" y="21"/>
      <point x="225" y="0"/>
    </contour>
  </outline>
</glyph>
<glyph name="b" format="2">
  <advance width="427"/>
  <unicode hex="0062"/>
  <outline>
    <contour>
      <point x="173" y="0" type="line"/>
      <point x="335" y="0"/>
      <point x="382" y="150"/>
      <point x="382" y="265" type="curve" smooth="yes"/>
      <point x="382" y="331"/>
      <point x="354" y="354"/>
      <point x="313" y="354" type="curve" smooth="yes"/>
      <point x="239" y="354"/>
      <point x="121" y="219"/>
      <point x="65" y="104" type="curve"/>
      <point x="65" y="51" type="line"/>
      <point x="106" y="51" type="line"/>
      <point x="149" y="133"/>
      <point x="258" y="266"/>
      <point x="282" y="266" type="curve" smooth="yes"/>
      <point x="287" y="266"/>
      <point x="288" y="255"/>
      <point x="288" y="246" type="curve" smooth="yes"/>
      <point x="288" y="155"/>
      <point x="247" y="87"/>
      <point x="173" y="87" type="curve"/>
      <point x="65" y="87" type="line"/>
      <point x="65" y="0" type="line"/>
    </contour>
    <contour>
      <point x="50" y="0" type="curve" smooth="yes"/>
      <point x="111" y="0" type="line"/>
      <point x="107" y="101" type="line"/>
      <point x="202" y="599" type="line" smooth="yes"/>
      <point x="208" y="632"/>
      <point x="190" y="650"/>
      <point x="163" y="650" type="curve" smooth="yes"/>
      <point x="143" y="650"/>
      <point x="115" y="640"/>
      <point x="109" y="607" type="curve" smooth="yes"/>
      <point x="10" y="44" type="line" smooth="yes"/>
      <point x="5" y="18"/>
      <point x="23" y="0"/>
    </contour>
  </outline>
</glyph>
<glyph name="c" format="2">
  <advance width="329"/>
  <unicode hex="0063"/>
  <outline>
    <contour>
      <point x="74" y="-4" type="curve" smooth="yes"/>
      <point x="135" y="-4"/>
      <point x="211" y="44"/>
      <point x="258" y="117" type="curve" smooth="yes"/>
      <point x="272" y="139"/>
      <point x="272" y="165"/>
      <point x="254" y="178" type="curve" smooth="yes"/>
      <point x="236" y="191"/>
      <point x="202" y="187"/>
      <point x="184" y="164" type="curve" smooth="yes"/>
      <point x="175" y="152"/>
      <point x="120" y="85"/>
      <point x="95" y="85" type="curve" smooth="yes"/>
      <point x="87" y="85"/>
      <point x="87" y="99"/>
      <point x="87" y="104" type="curve" smooth="yes"/>
      <point x="87" y="136"/>
      <point x="104" y="197"/>
      <point x="124" y="227" type="curve" smooth="yes"/>
      <point x="145" y="260"/>
      <point x="196" y="269"/>
      <point x="254" y="269" type="curve" smooth="yes"/>
      <point x="279" y="269"/>
      <point x="298" y="289"/>
      <point x="298" y="312" type="curve" smooth="yes"/>
      <point x="298" y="333"/>
      <point x="279" y="354"/>
      <point x="254" y="354" type="curve" smooth="yes"/>
      <point x="168" y="354"/>
      <point x="92" y="334"/>
      <point x="53" y="276" type="curve" smooth="yes"/>
      <point x="22" y="228"/>
      <point x="1" y="139"/>
      <point x="1" y="85" type="curve" smooth="yes"/>
      <point x="1" y="23"/>
      <point x="36" y="-4"/>
    </contour>
  </outline>
</glyph>
<glyph name="d" format="2">
  <advance width="503"/>
  <unicode hex="0064"/>
  <outline>
    <contour>
      <point x="340" y="0" type="curve" smooth="yes"/>
      <point x="380" y="0"/>
      <point x="406" y="21"/>
      <point x="436" y="57" type="curve" smooth="yes"/>
      <point x="456" y="81"/>
      <point x="457" y="100"/>
      <point x="457" y="113" type="curve" smooth="yes"/>
      <point x="457" y="140"/>
      <point x="437" y="153"/>
      <point x="415" y="153" type="curve" smooth="yes"/>
      <point x="403" y="153"/>
      <point x="391" y="142"/>
      <point x="382" y="129" type="curve" smooth="yes"/>
      <point x="367" y="108" type="line" smooth="yes"/>
      <point x="364" y="104"/>
      <point x="357" y="99"/>
      <point x="349" y="99" type="curve" smooth="yes"/>
      <point x="341" y="99"/>
      <point x="337" y="113"/>
      <point x="343" y="146" type="curve" smooth="yes"/>
      <point x="426" y="602" type="line" smooth="yes"/>
      <point x="432" y="635"/>
      <point x="410" y="650"/>
      <point x="382" y="650" type="curve" smooth="yes"/>
      <point x="359" y="650"/>
      <point x="336" y="637"/>
      <point x="331" y="606" type="curve" smooth="yes"/>
      <point x="268" y="238" type="line" smooth="yes"/>
      <point x="245" y="105"/>
      <point x="261" y="0"/>
    </contour>
    <contour>
      <point x="65" y="-4" type="curve" smooth="yes"/>
      <point x="128" y="-4"/>
      <point x="196" y="46"/>
      <point x="246" y="107" type="curve" smooth="yes"/>
      <point x="284" y="153"/>
      <point x="346" y="239"/>
      <point x="366" y="307" type="curve"/>
      <point x="287" y="307" type="line"/>
      <point x="259" y="261"/>
      <point x="226" y="202"/>
      <point x="191" y="159" type="curve" smooth="yes"/>
      <point x="148" y="106"/>
      <point x="110" y="84"/>
      <point x="102" y="84" type="curve" smooth="yes"/>
      <point x="96" y="84"/>
      <point x="96" y="101"/>
      <point x="96" y="106" type="curve" smooth="yes"/>
      <point x="96" y="132"/>
      <point x="111" y="197"/>
      <point x="131" y="226" type="curve" smooth="yes"/>
      <point x="153" y="258"/>
      <point x="187" y="263"/>
      <point x="219" y="263" type="curve"/>
      <point x="316" y="263" type="line"/>
      <point x="336" y="350" type="line"/>
      <point x="220" y="350" type="line"/>
      <point x="155" y="350"/>
      <point x="94" y="334"/>
      <point x="55" y="277" type="curve" smooth="yes"/>
      <point x="24" y="229"/>
      <point x="1" y="138"/>
      <point x="1" y="84" type="curve" smooth="yes"/>
      <point x="1" y="21"/>
      <point x="26" y="-4"/>
    </contour>
  </outline>
</glyph>
<glyph name="e" format="2">
  <advance width="337"/>
  <unicode hex="0065"/>
  <outline>
    <contour>
      <point x="119" y="-4" type="curve" smooth="yes"/>
      <point x="197" y="-4"/>
      <point x="246" y="47"/>
      <point x="254" y="58" type="curve" smooth="yes"/>
      <point x="274" y="83"/>
      <point x="269" y="114"/>
      <point x="252" y="128" type="curve" smooth="yes"/>
      <point x="233" y="143"/>
      <point x="207" y="135"/>
      <point x="186" y="110" type="curve" smooth="yes"/>
      <point x="174" y="96"/>
      <point x="151" y="80"/>
      <point x="126" y="80" type="curve" smooth="yes"/>
      <point x="105" y="80"/>
      <point x="95" y="102"/>
      <point x="95" y="118" type="curve" smooth="yes"/>
      <point x="95" y="155"/>
      <point x="111" y="205"/>
      <point x="133" y="239" type="curve" smooth="yes"/>
      <point x="150" y="265"/>
      <point x="178" y="286"/>
      <point x="194" y="286" type="curve" smooth="yes"/>
      <point x="203" y="286"/>
      <point x="212" y="280"/>
      <point x="212" y="273" type="curve" smooth="yes"/>
      <point x="212" y="259"/>
      <point x="194" y="234"/>
      <point x="153" y="210" type="curve" smooth="yes"/>
      <point x="126" y="194"/>
      <point x="79" y="166"/>
      <point x="61" y="157" type="curve"/>
      <point x="49" y="80" type="line"/>
      <point x="108" y="107"/>
      <point x="162" y="136"/>
      <point x="196" y="156" type="curve" smooth="yes"/>
      <point x="243" y="183"/>
      <point x="301" y="244"/>
      <point x="301" y="280" type="curve" smooth="yes"/>
      <point x="301" y="325"/>
      <point x="255" y="354"/>
      <point x="197" y="354" type="curve" smooth="yes"/>
      <point x="149" y="354"/>
      <point x="94" y="337"/>
      <point x="58" y="285" type="curve" smooth="yes"/>
      <point x="29" y="243"/>
      <point x="8" y="173"/>
      <point x="4" y="117" type="curve" smooth="yes"/>
      <point x="-3" y="23"/>
      <point x="67" y="-4"/>
    </contour>
  </outline>
</glyph>
<glyph name="f" format="2">
  <advance width="280"/>
  <unicode hex="0066"/>
  <outline>
    <contour>
      <point x="90" y="0" type="curve" smooth="yes"/>
      <point x="117" y="0"/>
      <point x="131" y="20"/>
      <point x="135" y="44" type="curve" smooth="yes"/>
      <point x="216" y="502" type="line" smooth="yes"/>
      <point x="222" y="534"/>
      <point x="243" y="560"/>
      <point x="260" y="560" type="curve" smooth="yes"/>
      <point x="348" y="560" type="line" smooth="yes"/>
      <point x="377" y="560"/>
      <point x="397" y="584"/>
      <point x="397" y="607" type="curve" smooth="yes"/>
      <point x="397" y="629"/>
      <point x="377" y="650"/>
      <point x="348" y="650" type="curve" smooth="yes"/>
      <point x="260" y="650" type="line" smooth="yes"/>
      <point x="202" y="650"/>
      <point x="140" y="614"/>
      <point x="123" y="519" type="curve" smooth="yes"/>
      <point x="40" y="51" type="line" smooth="yes"/>
      <point x="36" y="28"/>
      <point x="56" y="0"/>
    </contour>
    <contour>
      <point x="-2" y="307" type="curve" smooth="yes"/>
      <point x="-2" y="283"/>
      <point x="16" y="265"/>
      <point x="47" y="265" type="curve" smooth="yes"/>
      <point x="230" y="265" type="line" smooth="yes"/>
      <point x="260" y="265"/>
      <point x="279" y="281"/>
      <point x="279" y="307" type="curve" smooth="yes"/>
      <point x="279" y="331"/>
      <point x="262" y="350"/>
      <point x="230" y="350" type="curve" smooth="yes"/>
      <point x="47" y="350" type="line" smooth="yes"/>
      <point x="16" y="350"/>
      <point x="-2" y="331"/>
    </contour>
  </outline>
</glyph>
<glyph name="g" format="2">
  <advance width="422"/>
  <unicode hex="0067"/>
  <outline>
    <contour>
      <point x="-62" y="-255" type="curve" smooth="yes"/>
      <point x="-62" y="-279"/>
      <point x="-41" y="-300"/>
      <point x="-1" y="-300" type="curve" smooth="yes"/>
      <point x="17" y="-300"/>
      <point x="107" y="-294"/>
      <point x="139" y="-289" type="curve" smooth="yes"/>
      <point x="197" y="-281"/>
      <point x="242" y="-253"/>
      <point x="268" y="-210" type="curve" smooth="yes"/>
      <point x="302" y="-154"/>
      <point x="308" y="-80"/>
      <point x="322" y="-2" type="curve" smooth="yes"/>
      <point x="374" y="292" type="line" smooth="yes"/>
      <point x="381" y="330"/>
      <point x="364" y="350"/>
      <point x="331" y="350" type="curve" smooth="yes"/>
      <point x="291" y="350" type="line"/>
      <point x="265" y="192" type="line"/>
      <point x="232" y="6" type="line" smooth="yes"/>
      <point x="221" y="-58"/>
      <point x="210" y="-122"/>
      <point x="186" y="-161" type="curve" smooth="yes"/>
      <point x="170" y="-187"/>
      <point x="154" y="-199"/>
      <point x="119" y="-203" type="curve" smooth="yes"/>
      <point x="97" y="-206"/>
      <point x="8" y="-211"/>
      <point x="-5" y="-211" type="curve" smooth="yes"/>
      <point x="-37" y="-211"/>
      <point x="-62" y="-229"/>
    </contour>
    <contour>
      <point x="3" y="85" type="curve" smooth="yes"/>
      <point x="3" y="22"/>
      <point x="36" y="-4"/>
      <point x="75" y="-4" type="curve" smooth="yes"/>
      <point x="143" y="-4"/>
      <point x="195" y="54"/>
      <point x="225" y="92" type="curve" smooth="yes"/>
      <point x="276" y="156"/>
      <point x="318" y="226"/>
      <point x="364" y="308" type="curve"/>
      <point x="300" y="308" type="line"/>
      <point x="272" y="262"/>
      <point x="233" y="207"/>
      <point x="199" y="163" type="curve" smooth="yes"/>
      <point x="163" y="117"/>
      <point x="113" y="84"/>
      <point x="103" y="84" type="curve" smooth="yes"/>
      <point x="98" y="84"/>
      <point x="97" y="99"/>
      <point x="97" y="108" type="curve" smooth="yes"/>
      <point x="97" y="123"/>
      <point x="112" y="197"/>
      <point x="134" y="228" type="curve" smooth="yes"/>
      <point x="156" y="260"/>
      <point x="188" y="263"/>
      <point x="225" y="263" type="curve" smooth="yes"/>
      <point x="323" y="263" type="line"/>
      <point x="323" y="350" type="line"/>
      <point x="225" y="350" type="line" smooth="yes"/>
      <point x="169" y="350"/>
      <point x="97" y="336"/>
      <point x="58" y="279" type="curve" smooth="yes"/>
      <point x="27" y="231"/>
      <point x="3" y="151"/>
    </contour>
  </outline>
</glyph>
<glyph name="h" format="2">
  <advance width="447"/>
  <unicode hex="0068"/>
  <outline>
    <contour>
      <point x="54" y="0" type="curve" smooth="yes"/>
      <point x="78" y="0"/>
      <point x="101" y="11"/>
      <point x="106" y="37" type="curve" smooth="yes"/>
      <point x="205" y="601" type="line" smooth="yes"/>
      <point x="211" y="633"/>
      <point x="190" y="653"/>
      <point x="163" y="653" type="curve" smooth="yes"/>
      <point x="139" y="653"/>
      <point x="114" y="637"/>
      <point x="109" y="609" type="curve" smooth="yes"/>
      <point x="10" y="45" type="line" smooth="yes"/>
      <point x="5" y="17"/>
      <point x="27" y="0"/>
    </contour>
    <contour>
      <point x="297" y="0" type="curve" smooth="yes"/>
      <point x="333" y="0"/>
      <point x="350" y="22"/>
      <point x="353" y="37" type="curve" smooth="yes"/>
      <point x="387" y="223" type="line" smooth="yes"/>
      <point x="399" y="287"/>
      <point x="375" y="354"/>
      <point x="307" y="354" type="curve" smooth="yes"/>
      <point x="203" y="354"/>
      <point x="133" y="194"/>
      <point x="84" y="122" type="curve"/>
      <point x="106" y="37" type="line"/>
      <point x="162" y="145"/>
      <point x="262" y="276"/>
      <point x="284" y="276" type="curve" smooth="yes"/>
      <point x="298" y="276"/>
      <point x="298" y="256"/>
      <point x="293" y="231" type="curve" smooth="yes"/>
      <point x="259" y="45" type="line" smooth="yes"/>
      <point x="255" y="21"/>
      <point x="268" y="0"/>
    </contour>
  </outline>
</glyph>
<glyph name="i" format="2">
  <advance width="213"/>
  <unicode hex="0069"/>
  <outline>
    <contour>
      <point x="51" y="0" type="curve" smooth="yes"/>
      <point x="73" y="0"/>
      <point x="99" y="10"/>
      <point x="104" y="37" type="curve" smooth="yes"/>
      <point x="149" y="294" type="line" smooth="yes"/>
      <point x="155" y="327"/>
      <point x="131" y="350"/>
      <point x="106" y="350" type="curve" smooth="yes"/>
      <point x="82" y="350"/>
      <point x="60" y="332"/>
      <point x="55" y="305" type="curve" smooth="yes"/>
      <point x="10" y="49" type="line" smooth="yes"/>
      <point x="5" y="19"/>
      <point x="25" y="0"/>
    </contour>
    <contour>
      <point x="134" y="413" type="curve" smooth="yes"/>
      <point x="163" y="413"/>
      <point x="188" y="437"/>
      <point x="188" y="466" type="curve" smooth="yes"/>
      <point x="188" y="497"/>
      <point x="162" y="519"/>
      <point x="134" y="519" type="curve" smooth="yes"/>
      <point x="104" y="519"/>
      <point x="82" y="495"/>
      <point x="82" y="466" type="curve" smooth="yes"/>
      <point x="82" y="437"/>
      <point x="106" y="413"/>
    </contour>
  </outline>
</glyph>
<glyph name="j" format="2">
  <advance width="213"/>
  <unicode hex="006A"/>
  <outline>
    <contour>
      <point x="-282" y="-257" type="curve" smooth="yes"/>
      <point x="-282" y="-282"/>
      <point x="-260" y="-300"/>
      <point x="-221" y="-300" type="curve" smooth="yes"/>
      <point x="-202" y="-300"/>
      <point x="-117" y="-300"/>
      <point x="-85" y="-295" type="curve" smooth="yes"/>
      <point x="-27" y="-285"/>
      <point x="17" y="-256"/>
      <point x="43" y="-215" type="curve" smooth="yes"/>
      <point x="78" y="-158"/>
      <point x="81" y="-83"/>
      <point x="95" y="-5" type="curve" smooth="yes"/>
      <point x="149" y="295" type="line" smooth="yes"/>
      <point x="155" y="330"/>
      <point x="135" y="350"/>
      <point x="108" y="350" type="curve" smooth="yes"/>
      <point x="86" y="350"/>
      <point x="60" y="337"/>
      <point x="55" y="306" type="curve" smooth="yes"/>
      <point x="3" y="3" type="line" smooth="yes"/>
      <point x="-8" y="-62"/>
      <point x="-15" y="-126"/>
      <point x="-38" y="-165" type="curve" smooth="yes"/>
      <point x="-54" y="-190"/>
      <point x="-70" y="-203"/>
      <point x="-107" y="-208" type="curve" smooth="yes"/>
      <point x="-126" y="-210"/>
      <point x="-203" y="-209"/>
      <point x="-220" y="-209" type="curve" smooth="yes"/>
      <point x="-257" y="-209"/>
      <point x="-282" y="-231"/>
    </contour>
    <contour>
      <point x="134" y="413" type="curve" smooth="yes"/>
      <point x="163" y="413"/>
      <point x="188" y="437"/>
      <point x="188" y="466" type="curve" smooth="yes"/>
      <point x="188" y="497"/>
      <point x="162" y="519"/>
      <point x="134" y="519" type="curve" smooth="yes"/>
      <point x="104" y="519"/>
      <point x="82" y="495"/>
      <point x="82" y="466" type="curve" smooth="yes"/>
      <point x="82" y="437"/>
      <point x="106" y="413"/>
    </contour>
  </outline>
</glyph>
<glyph name="k" format="2">
  <advance width="439"/>
  <unicode hex="006B"/>
  <outline>
    <contour>
      <point x="54" y="0" type="curve" smooth="yes"/>
      <point x="81" y="0"/>
      <point x="101" y="11"/>
      <point x="106" y="40" type="curve" smooth="yes"/>
      <point x="204" y="599" type="line" smooth="yes"/>
      <point x="210" y="633"/>
      <point x="190" y="653"/>
      <point x="160" y="653" type="curve" smooth="yes"/>
      <point x="137" y="653"/>
      <point x="114" y="638"/>
      <point x="109" y="608" type="curve" smooth="yes"/>
      <point x="11" y="48" type="line" smooth="yes"/>
      <point x="6" y="19"/>
      <point x="27" y="0"/>
    </contour>
    <contour>
      <point x="315" y="0" type="curve" smooth="yes"/>
      <point x="335" y="0"/>
      <point x="355" y="13"/>
      <point x="359" y="33" type="curve"/>
      <point x="363" y="45"/>
      <point x="361" y="57"/>
      <point x="351" y="71" type="curve" smooth="yes"/>
      <point x="285" y="166" type="line"/>
      <point x="332" y="201"/>
      <point x="370" y="236"/>
      <point x="370" y="281" type="curve" smooth="yes"/>
      <point x="370" y="315"/>
      <point x="338" y="354"/>
      <point x="283" y="354" type="curve" smooth="yes"/>
      <point x="216" y="354"/>
      <point x="141" y="282"/>
      <point x="84" y="208" type="curve"/>
      <point x="78" y="101" type="line"/>
      <point x="142" y="191"/>
      <point x="230" y="280"/>
      <point x="266" y="280" type="curve" smooth="yes"/>
      <point x="274" y="280"/>
      <point x="281" y="274"/>
      <point x="281" y="267" type="curve" smooth="yes"/>
      <point x="281" y="256"/>
      <point x="250" y="223"/>
      <point x="192" y="189" type="curve" smooth="yes"/>
      <point x="178" y="180"/>
      <point x="172" y="165"/>
      <point x="181" y="152" type="curve" smooth="yes"/>
      <point x="268" y="27" type="line" smooth="yes"/>
      <point x="279" y="11"/>
      <point x="297" y="0"/>
    </contour>
  </outline>
</glyph>
<glyph name="l" format="2">
  <advance width="221"/>
  <unicode hex="006C"/>
  <outline>
    <contour>
      <point x="67" y="0" type="curve" smooth="yes"/>
      <point x="89" y="0"/>
      <point x="115" y="15"/>
      <point x="120" y="44" type="curve" smooth="yes"/>
      <point x="218" y="599" type="line" smooth="yes"/>
      <point x="224" y="631"/>
      <point x="197" y="650"/>
      <point x="169" y="650" type="curve" smooth="yes"/>
      <point x="147" y="650"/>
      <point x="125" y="640"/>
      <point x="120" y="612" type="curve" smooth="yes"/>
      <point x="21" y="50" type="line" smooth="yes"/>
      <point x="15" y="15"/>
      <point x="44" y="0"/>
    </contour>
  </outline>
</glyph>
<glyph name="m" format="2">
  <advance width="656"/>
  <unicode hex="006D"/>
  <outline>
    <contour>
      <point x="37" y="0" type="curve" smooth="yes"/>
      <point x="74" y="0"/>
      <point x="81" y="14"/>
      <point x="91" y="37" type="curve"/>
      <point x="138" y="302" type="line" smooth="yes"/>
      <point x="143" y="332"/>
      <point x="132" y="350"/>
      <point x="100" y="350" type="curve" smooth="yes"/>
      <point x="58" y="350"/>
      <point x="45" y="320"/>
      <point x="43" y="308" type="curve" smooth="yes"/>
      <point x="-4" y="44" type="line" smooth="yes"/>
      <point x="-8" y="20"/>
      <point x="3" y="0"/>
    </contour>
    <contour>
      <point x="275" y="0" type="curve" smooth="yes"/>
      <point x="312" y="0"/>
      <point x="323" y="20"/>
      <point x="327" y="42" type="curve" smooth="yes"/>
      <point x="360" y="222" type="line" smooth="yes"/>
      <point x="372" y="288"/>
      <point x="350" y="354"/>
      <point x="279" y="354" type="curve" smooth="yes"/>
      <point x="189" y="354"/>
      <point x="122" y="226"/>
      <point x="80" y="155" type="curve"/>
      <point x="91" y="37" type="line"/>
      <point x="119" y="117"/>
      <point x="226" y="276"/>
      <point x="259" y="276" type="curve" smooth="yes"/>
      <point x="272" y="276"/>
      <point x="270" y="256"/>
      <point x="265" y="231" type="curve" smooth="yes"/>
      <point x="231" y="44" type="line" smooth="yes"/>
      <point x="227" y="20"/>
      <point x="242" y="0"/>
    </contour>
    <contour>
      <point x="506" y="0" type="curve" smooth="yes"/>
      <point x="543" y="0"/>
      <point x="554" y="20"/>
      <point x="558" y="42" type="curve" smooth="yes"/>
      <point x="591" y="222" type="line" smooth="yes"/>
      <point x="603" y="288"/>
      <point x="581" y="354"/>
      <point x="510" y="354" type="curve" smooth="yes"/>
      <point x="420" y="354"/>
      <point x="353" y="226"/>
      <point x="311" y="155" type="curve"/>
      <point x="322" y="37" type="line"/>
      <point x="350" y="117"/>
      <point x="457" y="276"/>
      <point x="490" y="276" type="curve" smooth="yes"/>
      <point x="503" y="276"/>
      <point x="501" y="256"/>
      <point x="496" y="231" type="curve" smooth="yes"/>
      <point x="462" y="44" type="line" smooth="yes"/>
      <point x="458" y="20"/>
      <point x="473" y="0"/>
    </contour>
  </outline>
</glyph>
<glyph name="n" format="2">
  <advance width="420"/>
  <unicode hex="006E"/>
  <outline>
    <contour>
      <point x="275" y="0" type="curve" smooth="yes"/>
      <point x="312" y="0"/>
      <point x="323" y="20"/>
      <point x="327" y="42" type="curve" smooth="yes"/>
      <point x="360" y="222" type="line" smooth="yes"/>
      <point x="372" y="288"/>
      <point x="350" y="354"/>
      <point x="279" y="354" type="curve" smooth="yes"/>
      <point x="189" y="354"/>
      <point x="122" y="226"/>
      <point x="80" y="155" type="curve"/>
      <point x="91" y="37" type="line"/>
      <point x="119" y="117"/>
      <point x="226" y="276"/>
      <point x="259" y="276.0" type="curve" smooth="yes"/>
      <point x="272" y="276"/>
      <point x="270" y="256"/>
      <point x="265" y="231" type="curve" smooth="yes"/>
      <point x="231" y="44" type="line" smooth="yes"/>
      <point x="227" y="20"/>
      <point x="242" y="0"/>
    </contour>
    <contour>
      <point x="37" y="0" type="curve" smooth="yes"/>
      <point x="74" y="0"/>
      <point x="81" y="14"/>
      <point x="91" y="37" type="curve"/>
      <point x="138" y="302" type="line" smooth="yes"/>
      <point x="143" y="332"/>
      <point x="132" y="350"/>
      <point x="100" y="350" type="curve" smooth="yes"/>
      <point x="58" y="350"/>
      <point x="45" y="320"/>
      <point x="43" y="308" type="curve" smooth="yes"/>
      <point x="-4" y="44" type="line" smooth="yes"/>
      <point x="-8" y="20"/>
      <point x="3" y="0"/>
    </contour>
  </outline>
</glyph>
<glyph name="p" format="2">
  <advance width="410"/>
  <unicode hex="0070"/>
  <outline>
    <contour>
      <point x="-13" y="-303" type="curve" smooth="yes"/>
      <point x="10" y="-303"/>
      <point x="34" y="-288"/>
      <point x="38" y="-263" type="curve" smooth="yes"/>
      <point x="137" y="299" type="line" smooth="yes"/>
      <point x="142" y="327"/>
      <point x="125" y="350"/>
      <point x="98" y="350" type="curve" smooth="yes"/>
      <point x="75" y="350"/>
      <point x="47" y="335"/>
      <point x="43" y="310" type="curve" smooth="yes"/>
      <point x="-56" y="-254" type="line" smooth="yes"/>
      <point x="-61" y="-283"/>
      <point x="-40" y="-303"/>
    </contour>
    <contour>
      <point x="365" y="265" type="curve" smooth="yes"/>
      <point x="365" y="328"/>
      <point x="344" y="354"/>
      <point x="301" y="354" type="curve" smooth="yes"/>
      <point x="209" y="354"/>
      <point x="52" y="179"/>
      <point x="29" y="42" type="curve"/>
      <point x="81" y="42" type="line"/>
      <point x="125" y="127"/>
      <point x="237" y="266"/>
      <point x="264" y="266" type="curve" smooth="yes"/>
      <point x="269" y="266"/>
      <point x="270" y="256"/>
      <point x="270" y="251" type="curve" smooth="yes"/>
      <point x="270" y="165"/>
      <point x="233" y="87"/>
      <point x="161" y="87" type="curve"/>
      <point x="54" y="87" type="line"/>
      <point x="54" y="0" type="line"/>
      <point x="161" y="0" type="line"/>
      <point x="322" y="0"/>
      <point x="365" y="149"/>
    </contour>
  </outline>
</glyph>
<glyph name="q" format="2">
  <advance width="433"/>
  <unicode hex="0071"/>
  <outline>
    <contour>
      <point x="2" y="85" type="curve" smooth="yes"/>
      <point x="2" y="22"/>
      <point x="20" y="-4"/>
      <point x="59" y="-4" type="curve" smooth="yes"/>
      <point x="122" y="-4"/>
      <point x="187" y="57"/>
      <point x="241" y="124" type="curve" smooth="yes"/>
      <point x="287" y="182"/>
      <point x="316" y="222"/>
      <point x="340" y="306" type="curve"/>
      <point x="279" y="306" type="line"/>
      <point x="253" y="261"/>
      <point x="227" y="215"/>
      <point x="189" y="167" type="curve" smooth="yes"/>
      <point x="136" y="101"/>
      <point x="111" y="87"/>
      <point x="102" y="87" type="curve" smooth="yes"/>
      <point x="97" y="87"/>
      <point x="96" y="100"/>
      <point x="96" y="105" type="curve" smooth="yes"/>
      <point x="96" y="137"/>
      <point x="110" y="194"/>
      <point x="130" y="224" type="curve" smooth="yes"/>
      <point x="151" y="256"/>
      <point x="182" y="263"/>
      <point x="210" y="263" type="curve" smooth="yes"/>
      <point x="308" y="263" type="line"/>
      <point x="308" y="350" type="line"/>
      <point x="210" y="350" type="line" smooth="yes"/>
      <point x="155" y="350"/>
      <point x="92" y="332"/>
      <point x="54" y="275" type="curve" smooth="yes"/>
      <point x="22" y="228"/>
      <point x="2" y="139"/>
    </contour>
    <contour>
      <point x="369" y="-133" type="curve" smooth="yes"/>
      <point x="355" y="-115"/>
      <point x="329" y="-110"/>
      <point x="306" y="-130" type="curve" smooth="yes"/>
      <point x="227" y="-197" type="line"/>
      <point x="270" y="-274" type="line"/>
      <point x="360" y="-196" type="line" smooth="yes"/>
      <point x="384" y="-175"/>
      <point x="381" y="-149"/>
    </contour>
    <contour>
      <point x="217" y="-300" type="curve" smooth="yes"/>
      <point x="238" y="-300"/>
      <point x="253" y="-288"/>
      <point x="269" y="-274" type="curve"/>
      <point x="370" y="306" type="line" smooth="yes"/>
      <point x="374" y="328"/>
      <point x="359" y="350"/>
      <point x="326" y="350" type="curve" smooth="yes"/>
      <point x="290" y="350" type="line"/>
      <point x="180" y="-248" type="line" smooth="yes"/>
      <point x="174" y="-280"/>
      <point x="190" y="-300"/>
    </contour>
  </outline>
</glyph>
<glyph name="s" format="2">
  <advance width="324"/>
  <unicode hex="0073"/>
  <outline>
    <contour>
      <point x="110" y="0" type="line" smooth="yes"/>
      <point x="169" y="0"/>
      <point x="242" y="18"/>
      <point x="254" y="87" type="curve" smooth="yes"/>
      <point x="261" y="127"/>
      <point x="242" y="164"/>
      <point x="218" y="181" type="curve" smooth="yes"/>
      <point x="137" y="237" type="line" smooth="yes"/>
      <point x="126" y="245"/>
      <point x="122" y="250"/>
      <point x="122" y="254" type="curve" smooth="yes"/>
      <point x="122" y="258"/>
      <point x="135" y="262"/>
      <point x="156" y="262" type="curve" smooth="yes"/>
      <point x="241" y="262" type="line" smooth="yes"/>
      <point x="265" y="262"/>
      <point x="290" y="278"/>
      <point x="290" y="306" type="curve" smooth="yes"/>
      <point x="290" y="339"/>
      <point x="267" y="350"/>
      <point x="227" y="350" type="curve" smooth="yes"/>
      <point x="156" y="350" type="line" smooth="yes"/>
      <point x="92" y="350"/>
      <point x="31" y="314"/>
      <point x="28" y="253" type="curve" smooth="yes"/>
      <point x="27" y="208"/>
      <point x="57" y="182"/>
      <point x="85" y="163" type="curve" smooth="yes"/>
      <point x="148" y="121" type="line" smooth="yes"/>
      <point x="157" y="115"/>
      <point x="161" y="110"/>
      <point x="159" y="101" type="curve" smooth="yes"/>
      <point x="157" y="88"/>
      <point x="144" y="87"/>
      <point x="110" y="87" type="curve" smooth="yes"/>
      <point x="42" y="87" type="line" smooth="yes"/>
      <point x="13" y="87"/>
      <point x="-10" y="72"/>
      <point x="-10" y="43" type="curve" smooth="yes"/>
      <point x="-10" y="15"/>
      <point x="12" y="0"/>
      <point x="41" y="0" type="curve" smooth="yes"/>
    </contour>
  </outline>
</glyph>
<glyph name="t" format="2">
  <advance width="316"/>
  <unicode hex="0074"/>
  <outline>
    <contour>
      <point x="106" y="0" type="curve" smooth="yes"/>
      <point x="131" y="0"/>
      <point x="149" y="9"/>
      <point x="154" y="35" type="curve" smooth="yes"/>
      <point x="240" y="523" type="line" smooth="yes"/>
      <point x="246" y="557"/>
      <point x="221" y="568"/>
      <point x="194" y="568" type="curve" smooth="yes"/>
      <point x="172" y="568"/>
      <point x="149" y="555"/>
      <point x="145" y="532" type="curve" smooth="yes"/>
      <point x="59" y="44" type="line" smooth="yes"/>
      <point x="53" y="12"/>
      <point x="80" y="0"/>
    </contour>
    <contour>
      <point x="15" y="307" type="curve" smooth="yes"/>
      <point x="15" y="283"/>
      <point x="33" y="265"/>
      <point x="65" y="265" type="curve" smooth="yes"/>
      <point x="255" y="265" type="line" smooth="yes"/>
      <point x="287" y="265"/>
      <point x="305" y="283"/>
      <point x="305" y="307" type="curve" smooth="yes"/>
      <point x="305" y="332"/>
      <point x="287" y="350"/>
      <point x="255" y="350" type="curve" smooth="yes"/>
      <point x="65" y="350" type="line" smooth="yes"/>
      <point x="33" y="350"/>
      <point x="15" y="332"/>
    </contour>
  </outline>
</glyph>
<glyph name="u" format="2">
  <advance width="418"/>
  <unicode hex="0075"/>
  <outline>
    <contour>
      <point x="89" y="-4" type="curve" smooth="yes"/>
      <point x="179" y="-4"/>
      <point x="246" y="124"/>
      <point x="288" y="195" type="curve"/>
      <point x="277" y="313" type="line"/>
      <point x="249" y="233"/>
      <point x="142" y="74"/>
      <point x="109" y="74" type="curve" smooth="yes"/>
      <point x="96" y="74"/>
      <point x="98" y="94"/>
      <point x="103" y="119" type="curve" smooth="yes"/>
      <point x="137" y="306" type="line" smooth="yes"/>
      <point x="141" y="330"/>
      <point x="126" y="350"/>
      <point x="93" y="350" type="curve" smooth="yes"/>
      <point x="56" y="350"/>
      <point x="45" y="330"/>
      <point x="41" y="308" type="curve" smooth="yes"/>
      <point x="8" y="128" type="line" smooth="yes"/>
      <point x="-4" y="62"/>
      <point x="18" y="-4"/>
    </contour>
    <contour>
      <point x="268" y="0" type="curve" smooth="yes"/>
      <point x="310" y="0"/>
      <point x="323" y="30"/>
      <point x="325" y="42" type="curve" smooth="yes"/>
      <point x="372" y="306" type="line" smooth="yes"/>
      <point x="376" y="330"/>
      <point x="365" y="350"/>
      <point x="331" y="350" type="curve" smooth="yes"/>
      <point x="294" y="350"/>
      <point x="287" y="336"/>
      <point x="277" y="313" type="curve"/>
      <point x="230" y="48" type="line" smooth="yes"/>
      <point x="225" y="18"/>
      <point x="236" y="0"/>
    </contour>
  </outline>
</glyph>
<glyph name="v" format="2">
  <advance width="432"/>
  <unicode hex="0076"/>
  <outline>
    <contour>
      <point x="78" y="-4" type="curve" smooth="yes"/>
      <point x="189" y="-4"/>
      <point x="257" y="86"/>
      <point x="364" y="264" type="curve"/>
      <point x="373" y="334" type="line"/>
      <point x="365" y="347"/>
      <point x="349" y="351"/>
      <point x="336" y="351" type="curve" smooth="yes"/>
      <point x="309" y="351"/>
      <point x="295" y="338"/>
      <point x="280" y="308" type="curve" smooth="yes"/>
      <point x="227" y="199"/>
      <point x="133" y="78"/>
      <point x="112" y="78" type="curve" smooth="yes"/>
      <point x="104" y="78"/>
      <point x="104" y="107"/>
      <point x="113" y="157" type="curve" smooth="yes"/>
      <point x="139" y="298" type="line" smooth="yes"/>
      <point x="145" y="331"/>
      <point x="125" y="351"/>
      <point x="98" y="351" type="curve" smooth="yes"/>
      <point x="76" y="351"/>
      <point x="47" y="335"/>
      <point x="42" y="308" type="curve" smooth="yes"/>
      <point x="8" y="115" type="line" smooth="yes"/>
      <point x="-3" y="51"/>
      <point x="18" y="-4"/>
    </contour>
    <contour>
      <point x="418" y="192" type="curve" smooth="yes"/>
      <point x="435" y="205"/>
      <point x="443" y="230"/>
      <point x="426" y="256" type="curve" smooth="yes"/>
      <point x="373" y="334" type="line"/>
      <point x="298" y="278" type="line"/>
      <point x="345" y="209" type="line" smooth="yes"/>
      <point x="366" y="178"/>
      <point x="398" y="178"/>
    </contour>
  </outline>
</glyph>
<glyph name="w" format="2">
  <advance width="671"/>
  <unicode hex="0077"/>
  <outline>
    <contour>
      <point x="316" y="-5" type="curve" smooth="yes"/>
      <point x="425" y="-5"/>
      <point x="485" y="79"/>
      <point x="591" y="241" type="curve"/>
      <point x="611" y="333" type="line"/>
      <point x="604" y="342"/>
      <point x="591" y="350"/>
      <point x="577" y="350" type="curve" smooth="yes"/>
      <point x="549" y="350"/>
      <point x="539" y="343"/>
      <point x="522" y="314" type="curve" smooth="yes"/>
      <point x="437" y="173"/>
      <point x="370" y="77"/>
      <point x="350" y="77" type="curve" smooth="yes"/>
      <point x="343" y="77"/>
      <point x="344" y="93"/>
      <point x="348" y="117" type="curve" smooth="yes"/>
      <point x="380" y="298" type="line" smooth="yes"/>
      <point x="387" y="335"/>
      <point x="360" y="350"/>
      <point x="336" y="350" type="curve"/>
      <point x="277" y="264" type="line"/>
      <point x="247" y="115" type="line" smooth="yes"/>
      <point x="234" y="49"/>
      <point x="257" y="-5"/>
    </contour>
    <contour>
      <point x="80" y="-4" type="curve" smooth="yes"/>
      <point x="146" y="-4"/>
      <point x="237" y="53"/>
      <point x="348" y="267" type="curve"/>
      <point x="336" y="350" type="line"/>
      <point x="312" y="350"/>
      <point x="299" y="345"/>
      <point x="279" y="307" type="curve" smooth="yes"/>
      <point x="224" y="201"/>
      <point x="128" y="78"/>
      <point x="115" y="78" type="curve" smooth="yes"/>
      <point x="105" y="78"/>
      <point x="108" y="109"/>
      <point x="111" y="125" type="curve" smooth="yes"/>
      <point x="142" y="298" type="line" smooth="yes"/>
      <point x="148" y="332"/>
      <point x="125" y="350"/>
      <point x="99" y="350" type="curve" smooth="yes"/>
      <point x="72" y="350"/>
      <point x="48" y="336"/>
      <point x="42" y="304" type="curve" smooth="yes"/>
      <point x="8" y="113" type="line" smooth="yes"/>
      <point x="-4" y="43"/>
      <point x="28" y="-4"/>
    </contour>
    <contour>
      <point x="656" y="192" type="curve" smooth="yes"/>
      <point x="674" y="205"/>
      <point x="682" y="229"/>
      <point x="664" y="255" type="curve" smooth="yes"/>
      <point x="611" y="333" type="line"/>
      <point x="535" y="277" type="line"/>
      <point x="584" y="208" type="line" smooth="yes"/>
      <point x="604" y="179"/>
      <point x="637" y="178"/>
    </contour>
  </outline>
</glyph>
<glyph name="x" format="2">
  <advance width="390"/>
  <unicode hex="0078"/>
  <outline>
    <contour>
      <point x="4" y="13" type="curve" smooth="yes"/>
      <point x="20" y="-3"/>
      <point x="52" y="-7"/>
      <point x="76" y="16" type="curve" smooth="yes"/>
      <point x="196" y="134" type="line"/>
      <point x="208" y="145" type="line"/>
      <point x="343" y="275" type="line" smooth="yes"/>
      <point x="366" y="297"/>
      <point x="361" y="322"/>
      <point x="344" y="337" type="curve" smooth="yes"/>
      <point x="328" y="352"/>
      <point x="299" y="357"/>
      <point x="276" y="335" type="curve" smooth="yes"/>
      <point x="153" y="218" type="line"/>
      <point x="140" y="206" type="line"/>
      <point x="6" y="76" type="line" smooth="yes"/>
      <point x="-18" y="53"/>
      <point x="-12" y="29"/>
    </contour>
    <contour>
      <point x="295" y="13" type="curve" smooth="yes"/>
      <point x="311" y="28"/>
      <point x="317" y="51"/>
      <point x="302" y="73" type="curve" smooth="yes"/>
      <point x="215" y="199" type="line"/>
      <point x="124" y="329" type="line"/>
      <point x="105" y="355"/>
      <point x="77" y="354"/>
      <point x="58" y="340" type="curve" smooth="yes"/>
      <point x="40" y="327"/>
      <point x="32" y="302"/>
      <point x="48" y="279" type="curve"/>
      <point x="140" y="146" type="line"/>
      <point x="227" y="20" type="line" smooth="yes"/>
      <point x="246" y="-8"/>
      <point x="277" y="-3"/>
    </contour>
  </outline>
</glyph>
<glyph name="y" format="2">
  <advance width="419"/>
  <unicode hex="0079"/>
  <outline>
    <contour>
      <point x="-56" y="-257" type="curve" smooth="yes"/>
      <point x="-56" y="-282"/>
      <point x="-48" y="-300"/>
      <point x="-9" y="-300" type="curve" smooth="yes"/>
      <point x="10" y="-300"/>
      <point x="101" y="-298"/>
      <point x="133" y="-293" type="curve"/>
      <point x="184" y="-286"/>
      <point x="229" y="-260"/>
      <point x="260" y="-214" type="curve" smooth="yes"/>
      <point x="297" y="-159"/>
      <point x="305" y="-83"/>
      <point x="318" y="-5" type="curve" smooth="yes"/>
      <point x="369" y="295" type="line" smooth="yes"/>
      <point x="375" y="331"/>
      <point x="368" y="350"/>
      <point x="330" y="350" type="curve" smooth="yes"/>
      <point x="297" y="350"/>
      <point x="277" y="333"/>
      <point x="272" y="302" type="curve" smooth="yes"/>
      <point x="222" y="3" type="line" smooth="yes"/>
      <point x="211" y="-62"/>
      <point x="203" y="-126"/>
      <point x="180" y="-165" type="curve" smooth="yes"/>
      <point x="164" y="-190"/>
      <point x="138" y="-204"/>
      <point x="111" y="-207" type="curve" smooth="yes"/>
      <point x="92" y="-209"/>
      <point x="9" y="-209"/>
      <point x="-8" y="-209" type="curve" smooth="yes"/>
      <point x="-45" y="-209"/>
      <point x="-56" y="-231"/>
    </contour>
    <contour>
      <point x="80" y="-4" type="curve" smooth="yes"/>
      <point x="166" y="-4"/>
      <point x="232" y="70"/>
      <point x="284" y="172" type="curve"/>
      <point x="272" y="302" type="line"/>
      <point x="239" y="207"/>
      <point x="145" y="74"/>
      <point x="111" y="74" type="curve" smooth="yes"/>
      <point x="101" y="74"/>
      <point x="102" y="94"/>
      <point x="106" y="119" type="curve" smooth="yes"/>
      <point x="138" y="300" type="line" smooth="yes"/>
      <point x="143" y="330"/>
      <point x="131" y="350"/>
      <point x="96" y="350" type="curve" smooth="yes"/>
      <point x="65" y="350"/>
      <point x="48" y="335"/>
      <point x="43" y="307" type="curve" smooth="yes"/>
      <point x="11" y="127" type="line" smooth="yes"/>
      <point x="-1" y="58"/>
      <point x="13" y="-4"/>
    </contour>
  </outline>
</glyph>
<glyph name="z" format="2">
  <advance width="389"/>
  <unicode hex="007A"/>
  <outline>
    <contour>
      <point x="-10" y="43" type="curve" smooth="yes"/>
      <point x="-10" y="20"/>
      <point x="9" y="0"/>
      <point x="36" y="0" type="curve"/>
      <point x="75" y="22" type="line"/>
      <point x="332" y="277" type="line" smooth="yes"/>
      <point x="341" y="286"/>
      <point x="347" y="294"/>
      <point x="347" y="309" type="curve" smooth="yes"/>
      <point x="347" y="333"/>
      <point x="331" y="350"/>
      <point x="298" y="350" type="curve"/>
      <point x="265" y="331" type="line"/>
      <point x="5" y="75" type="line" smooth="yes"/>
      <point x="-5" y="65"/>
      <point x="-10" y="54"/>
    </contour>
    <contour>
      <point x="311" y="43" type="curve" smooth="yes"/>
      <point x="311" y="67"/>
      <point x="293" y="85"/>
      <point x="263" y="85" type="curve" smooth="yes"/>
      <point x="74" y="85" type="line"/>
      <point x="36" y="0" type="line"/>
      <point x="263" y="0" type="line" smooth="yes"/>
      <point x="293" y="0"/>
      <point x="311" y="19"/>
    </contour>
    <contour>
      <point x="37" y="305" type="curve" smooth="yes"/>
      <point x="37" y="281"/>
      <point x="55" y="260"/>
      <point x="85" y="260" type="curve" smooth="yes"/>
      <point x="257" y="260" type="line"/>
      <point x="299" y="350" type="line"/>
      <point x="85" y="350" type="line" smooth="yes"/>
      <point x="55" y="350"/>
      <point x="37" y="329"/>
    </contour>
  </outline>
</glyph>
<glyph name="bar" format="2">
  <advance width="317"/>
  <unicode hex="007C"/>
  <outline>
    <contour>
      <point x="265" y="645" type="line" smooth="yes"/>
      <point x="271" y="681"/>
      <point x="248" y="702"/>
      <point x="220" y="702" type="curve" smooth="yes"/>
      <point x="198" y="702"/>
      <point x="172" y="685"/>
      <point x="167" y="657" type="curve" smooth="yes"/>
      <point x="6" y="-250" type="line" smooth="yes"/>
      <point x="0" y="-278"/>
      <point x="22" y="-302"/>
      <point x="54" y="-302" type="curve" smooth="yes"/>
      <point x="88" y="-302"/>
      <point x="100" y="-281"/>
      <point x="105" y="-260" type="curve"/>
    </contour>
  </outline>
</glyph>
<glyph name="exclamdown" format="2">
  <advance width="273"/>
  <unicode hex="00A1"/>
  <outline>
    <contour>
      <point x="206" y="399" type="line" smooth="yes"/>
      <point x="212" y="433"/>
      <point x="186" y="450"/>
      <point x="163" y="452" type="curve" smooth="yes"/>
      <point x="139" y="454"/>
      <point x="111" y="437"/>
      <point x="106" y="407" type="curve" smooth="yes"/>
      <point x="42" y="47" type="line" smooth="yes"/>
      <point x="37" y="17"/>
      <point x="62" y="-2"/>
      <point x="90" y="0" type="curve" smooth="yes"/>
      <point x="112" y="0"/>
      <point x="138" y="14"/>
      <point x="142" y="39" type="curve" smooth="yes"/>
    </contour>
    <contour>
      <point x="191" y="540" type="curve" smooth="yes"/>
      <point x="222" y="540"/>
      <point x="244" y="566"/>
      <point x="244" y="594" type="curve" smooth="yes"/>
      <point x="244" y="623"/>
      <point x="222" y="650"/>
      <point x="191" y="650" type="curve" smooth="yes"/>
      <point x="161" y="650"/>
      <point x="134" y="623"/>
      <point x="134" y="594" type="curve" smooth="yes"/>
      <point x="134" y="566"/>
      <point x="161" y="540"/>
    </contour>
  </outline>
</glyph>
<glyph name="questiondown" format="2">
  <advance width="576"/>
  <unicode hex="00BF"/>
  <outline>
    <contour>
      <point x="366" y="386" type="line"/>
      <point x="192" y="398"/>
      <point x="111" y="296"/>
      <point x="86" y="160" type="curve" smooth="yes"/>
      <point x="72" y="76"/>
      <point x="143" y="1"/>
      <point x="238" y="1" type="curve" smooth="yes"/>
      <point x="353" y="1"/>
      <point x="425" y="67"/>
      <point x="442" y="159" type="curve" smooth="yes"/>
      <point x="447" y="194"/>
      <point x="434" y="212"/>
      <point x="413" y="217" type="curve" smooth="yes"/>
      <point x="389" y="224"/>
      <point x="354" y="208"/>
      <point x="348" y="175" type="curve" smooth="yes"/>
      <point x="341" y="128"/>
      <point x="316" y="89"/>
      <point x="256" y="89" type="curve" smooth="yes"/>
      <point x="206" y="89"/>
      <point x="178" y="108"/>
      <point x="185" y="148" type="curve" smooth="yes"/>
      <point x="192" y="192"/>
      <point x="216" y="300"/>
      <point x="337" y="289" type="curve"/>
    </contour>
    <contour>
      <point x="404" y="428" type="line" smooth="yes"/>
      <point x="409" y="454"/>
      <point x="390" y="473"/>
      <point x="366" y="479" type="curve" smooth="yes"/>
      <point x="340" y="484"/>
      <point x="310" y="470"/>
      <point x="304" y="435" type="curve" smooth="yes"/>
      <point x="286" y="333" type="line" smooth="yes"/>
      <point x="282" y="310"/>
      <point x="306" y="289"/>
      <point x="337" y="289" type="curve" smooth="yes"/>
      <point x="359" y="289"/>
      <point x="382" y="304"/>
      <point x="386" y="326" type="curve" smooth="yes"/>
    </contour>
    <contour>
      <point x="383" y="540" type="curve" smooth="yes"/>
      <point x="414" y="540"/>
      <point x="436" y="568"/>
      <point x="436" y="597" type="curve" smooth="yes"/>
      <point x="436" y="625"/>
      <point x="412" y="650"/>
      <point x="382" y="650" type="curve" smooth="yes"/>
      <point x="351" y="650"/>
      <point x="326" y="625"/>
      <point x="326" y="598" type="curve" smooth="yes"/>
      <point x="326" y="568"/>
      <point x="351" y="540"/>
    </contour>
  </outline>
</glyph>
<glyph name="ellipsis" format="2">
  <advance width="617"/>
  <unicode hex="2026"/>
  <outline>
    <contour>
      <point x="396" y="-31" type="curve" smooth="yes"/>
      <point x="424" y="-31"/>
      <point x="451" y="-6"/>
      <point x="451" y="25" type="curve" smooth="yes"/>
      <point x="451" y="56"/>
      <point x="424" y="79"/>
      <point x="395" y="79" type="curve" smooth="yes"/>
      <point x="367" y="79"/>
      <point x="341" y="57"/>
      <point x="341" y="25" type="curve" smooth="yes"/>
      <point x="341" y="-6"/>
      <point x="367" y="-31"/>
    </contour>
    <contour>
      <point x="106" y="-31" type="curve" smooth="yes"/>
      <point x="134" y="-31"/>
      <point x="161" y="-6"/>
      <point x="161" y="25" type="curve" smooth="yes"/>
      <point x="161" y="56"/>
      <point x="134" y="79"/>
      <point x="105" y="79" type="curve" smooth="yes"/>
      <point x="77" y="79"/>
      <point x="51" y="57"/>
      <point x="51" y="25" type="curve" smooth="yes"/>
      <point x="51" y="-6"/>
      <point x="77" y="-31"/>
    </contour>
    <contour>
      <point x="251" y="-30" type="curve" smooth="yes"/>
      <point x="279" y="-30"/>
      <point x="306" y="-6"/>
      <point x="306" y="25" type="curve" smooth="yes"/>
      <point x="306" y="56"/>
      <point x="279" y="79"/>
      <point x="251" y="79" type="curve" smooth="yes"/>
      <point x="222" y="79"/>
      <point x="196" y="56"/>
      <point x="196" y="25" type="curve" smooth="yes"/>
      <point x="196" y="-6"/>
      <point x="222" y="-30"/>
    </contour>
  </outline>
</glyph>
<glyph name="minus" format="2">
  <advance width="537"/>
  <unicode hex="2212"/>
  <outline>
    <contour>
      <point x="350" y="154" type="line" smooth="yes"/>
      <point x="381" y="154"/>
      <point x="401" y="174"/>
      <point x="401" y="198" type="curve" smooth="yes"/>
      <point x="401" y="222"/>
      <point x="381" y="241"/>
      <point x="350" y="241" type="curve" smooth="yes"/>
      <point x="133" y="241" type="line" smooth="yes"/>
      <point x="102" y="241"/>
      <point x="82" y="222"/>
      <point x="82" y="198" type="curve" smooth="yes"/>
      <point x="82" y="173"/>
      <point x="102" y="154"/>
      <point x="133" y="154" type="curve" smooth="yes"/>
    </contour>
  </outline>
</glyph>
<glyph name="notequal" format="2">
  <advance width="538"/>
  <unicode hex="2260"/>
  <outline>
    <contour>
      <point x="359" y="333" type="line" smooth="yes"/>
      <point x="379" y="376"/>
      <point x="351" y="401"/>
      <point x="322" y="401" type="curve" smooth="yes"/>
      <point x="305" y="401"/>
      <point x="283" y="391"/>
      <point x="274" y="372" type="curve" smooth="yes"/>
      <point x="129" y="60" type="line" smooth="yes"/>
      <point x="115" y="30"/>
      <point x="130" y="8"/>
      <point x="155" y="-1" type="curve" smooth="yes"/>
      <point x="175" y="-7"/>
      <point x="203" y="-1"/>
      <point x="214" y="22" type="curve" smooth="yes"/>
    </contour>
    <contour>
      <point x="341" y="97" type="line" smooth="yes"/>
      <point x="371" y="97"/>
      <point x="392" y="116"/>
      <point x="392" y="141" type="curve" smooth="yes"/>
      <point x="392" y="165"/>
      <point x="371" y="182"/>
      <point x="341" y="182" type="curve" smooth="yes"/>
      <point x="123" y="182" type="line" smooth="yes"/>
      <point x="93" y="182"/>
      <point x="72" y="165"/>
      <point x="72" y="141" type="curve" smooth="yes"/>
      <point x="72" y="117"/>
      <point x="93" y="97"/>
      <point x="123" y="97" type="curve" smooth="yes"/>
    </contour>
    <contour>
      <point x="367" y="248" type="line" smooth="yes"/>
      <point x="397" y="248"/>
      <point x="418" y="266"/>
      <point x="418" y="290" type="curve" smooth="yes"/>
      <point x="418" y="314"/>
      <point x="397" y="333"/>
      <point x="367" y="333" type="curve" smooth="yes"/>
      <point x="149" y="333" type="line" smooth="yes"/>
      <point x="119" y="333"/>
      <point x="98" y="314"/>
      <point x="98" y="290" type="curve" smooth="yes"/>
      <point x="98" y="266"/>
      <point x="119" y="248"/>
      <point x="149" y="248" type="curve" smooth="yes"/>
    </contour>
  </outline>
</glyph>
<glyph name=".notdef" format="2">
  <advance width="697"/>
  <outline>
    <contour>
      <point x="488" y="0" type="line" smooth="yes"/>
      <point x="513" y="0"/>
      <point x="536" y="26"/>
      <point x="540" y="49" type="curve" smooth="yes"/>
      <point x="647" y="659" type="line" smooth="yes"/>
      <point x="652" y="687"/>
      <point x="637" y="700"/>
      <point x="600" y="700" type="curve"/>
      <point x="220" y="700" type="line"/>
      <point x="192" y="700"/>
      <point x="171" y="687"/>
      <point x="166" y="659" type="curve" smooth="yes"/>
      <point x="59" y="49" type="line" smooth="yes"/>
      <point x="54" y="21"/>
      <point x="68" y="0"/>
      <point x="107" y="0" type="curve" smooth="yes"/>
    </contour>
    <contour>
      <point x="169" y="95" type="line"/>
      <point x="259" y="605" type="line"/>
      <point x="536" y="605" type="line"/>
      <point x="446" y="95" type="line"/>
    </contour>
  </outline>
</glyph>
<glyph name="a.sc" format="2">
  <advance width="448"/>
  <guideline x="270" y="396" angle="0"/>
  <outline>
    <contour>
      <point x="255" y="317" type="line"/>
      <point x="272" y="348" type="line"/>
      <point x="281" y="380"/>
      <point x="263" y="396"/>
      <point x="232" y="396" type="curve" smooth="yes"/>
      <point x="208" y="396"/>
      <point x="196" y="383"/>
      <point x="188" y="367" type="curve" smooth="yes"/>
      <point x="31" y="65" type="line" smooth="yes"/>
      <point x="15" y="34"/>
      <point x="25" y="0"/>
      <point x="58" y="0" type="curve" smooth="yes"/>
      <point x="80" y="0"/>
      <point x="95" y="9"/>
      <point x="106" y="31" type="curve" smooth="yes"/>
    </contour>
    <contour>
      <point x="90" y="151" type="line"/>
      <point x="280" y="151" type="line"/>
      <point x="273" y="221" type="line"/>
      <point x="133" y="221" type="line"/>
    </contour>
    <contour>
      <point x="274" y="371" type="line"/>
      <point x="207" y="326" type="line"/>
      <point x="224" y="45" type="line" smooth="yes"/>
      <point x="226" y="18"/>
      <point x="238" y="0"/>
      <point x="266" y="0" type="curve" smooth="yes"/>
      <point x="293" y="0"/>
      <point x="309" y="21"/>
      <point x="306" y="50" type="curve" smooth="yes"/>
    </contour>
  </outline>
</glyph>
<glyph name="b.sc" format="2">
  <advance width="461"/>
  <outline>
    <contour>
      <point x="203" y="340" type="line" smooth="yes"/>
      <point x="209" y="374"/>
      <point x="187" y="396"/>
      <point x="158" y="396" type="curve" smooth="yes"/>
      <point x="133" y="396"/>
      <point x="114" y="380"/>
      <point x="109" y="352" type="curve" smooth="yes"/>
      <point x="56" y="54" type="line" smooth="yes"/>
      <point x="51" y="25"/>
      <point x="73" y="0"/>
      <point x="103" y="0" type="curve" smooth="yes"/>
      <point x="125" y="0"/>
      <point x="146" y="16"/>
      <point x="151" y="43" type="curve" smooth="yes"/>
    </contour>
    <contour>
      <point x="102" y="0" type="line"/>
      <point x="246" y="0"/>
      <point x="296" y="17"/>
      <point x="313" y="100" type="curve" smooth="yes"/>
      <point x="329" y="199"/>
      <point x="217" y="226"/>
      <point x="116" y="226" type="curve"/>
      <point x="102" y="153" type="line"/>
      <point x="189" y="153"/>
      <point x="228" y="141"/>
      <point x="224" y="115" type="curve" smooth="yes"/>
      <point x="220" y="91"/>
      <point x="200" y="80"/>
      <point x="116" y="80" type="curve"/>
    </contour>
    <contour>
      <point x="105" y="153" type="line"/>
      <point x="287" y="153"/>
      <point x="328" y="194"/>
      <point x="342" y="267" type="curve" smooth="yes"/>
      <point x="358" y="361"/>
      <point x="263" y="396"/>
      <point x="155" y="396" type="curve"/>
      <point x="138" y="317" type="line"/>
      <point x="233" y="317"/>
      <point x="257" y="302"/>
      <point x="253" y="280" type="curve" smooth="yes"/>
      <point x="247" y="248"/>
      <point x="238" y="226"/>
      <point x="119" y="226" type="curve"/>
    </contour>
  </outline>
</glyph>
<glyph name="c.sc" format="2">
  <advance width="482"/>
  <outline>
    <contour>
      <point x="175" y="0" type="curve" smooth="yes"/>
      <point x="236" y="0"/>
      <point x="273" y="34"/>
      <point x="320" y="101" type="curve" smooth="yes"/>
      <point x="333" y="122"/>
      <point x="337" y="142"/>
      <point x="333" y="157" type="curve" smooth="yes"/>
      <point x="329" y="175"/>
      <point x="315" y="186"/>
      <point x="293" y="186" type="curve" smooth="yes"/>
      <point x="271" y="186"/>
      <point x="260" y="177"/>
      <point x="243" y="154" type="curve" smooth="yes"/>
      <point x="206" y="101"/>
      <point x="192" y="90"/>
      <point x="180" y="90" type="curve" smooth="yes"/>
      <point x="174" y="90"/>
      <point x="174" y="99"/>
      <point x="174" y="113" type="curve" smooth="yes"/>
      <point x="174" y="139"/>
      <point x="182" y="178"/>
      <point x="186" y="203" type="curve" smooth="yes"/>
      <point x="197" y="265"/>
      <point x="208" y="306"/>
      <point x="299" y="306" type="curve" smooth="yes"/>
      <point x="313" y="306"/>
      <point x="339" y="305"/>
      <point x="351" y="312" type="curve" smooth="yes"/>
      <point x="379" y="327"/>
      <point x="382" y="369"/>
      <point x="354" y="387" type="curve" smooth="yes"/>
      <point x="345" y="392"/>
      <point x="320" y="396"/>
      <point x="299" y="396" type="curve" smooth="yes"/>
      <point x="133" y="396"/>
      <point x="106" y="294"/>
      <point x="91" y="211" type="curve" smooth="yes"/>
      <point x="90" y="203"/>
      <point x="80" y="148"/>
      <point x="80" y="111" type="curve" smooth="yes"/>
      <point x="80" y="61"/>
      <point x="89" y="0"/>
    </contour>
  </outline>
</glyph>
<glyph name="d.sc" format="2">
  <advance width="482"/>
  <outline>
    <contour>
      <point x="101" y="0" type="line"/>
      <point x="134" y="0" type="line" smooth="yes"/>
      <point x="235" y="0"/>
      <point x="329" y="78"/>
      <point x="352" y="205" type="curve" smooth="yes"/>
      <point x="370" y="313"/>
      <point x="283" y="396"/>
      <point x="175" y="396" type="curve" smooth="yes"/>
      <point x="157" y="396" type="line"/>
      <point x="147" y="316" type="line"/>
      <point x="178" y="316" type="line" smooth="yes"/>
      <point x="235" y="316"/>
      <point x="267" y="270"/>
      <point x="257" y="216" type="curve" smooth="yes"/>
      <point x="244" y="129"/>
      <point x="191" y="74"/>
      <point x="134" y="74" type="curve" smooth="yes"/>
      <point x="122" y="74" type="line"/>
    </contour>
    <contour>
      <point x="201" y="336" type="line" smooth="yes"/>
      <point x="206" y="367"/>
      <point x="190" y="396"/>
      <point x="158" y="396" type="curve" smooth="yes"/>
      <point x="135" y="396"/>
      <point x="114" y="385"/>
      <point x="108" y="353" type="curve" smooth="yes"/>
      <point x="55" y="52" type="line" smooth="yes"/>
      <point x="50" y="24"/>
      <point x="71" y="0"/>
      <point x="102" y="0" type="curve" smooth="yes"/>
      <point x="129" y="0"/>
      <point x="144" y="17"/>
      <point x="149" y="38" type="curve"/>
    </contour>
  </outline>
</glyph>
<glyph name="exclam.c2sc" format="2">
  <advance width="327"/>
  <outline>
    <contour>
      <point x="101" y="-47" type="curve" smooth="yes"/>
      <point x="131" y="-47"/>
      <point x="158" y="-20"/>
      <point x="158" y="9" type="curve" smooth="yes"/>
      <point x="158" y="38"/>
      <point x="131" y="64"/>
      <point x="101" y="64" type="curve" smooth="yes"/>
      <point x="70" y="64"/>
      <point x="48" y="36"/>
      <point x="48" y="9" type="curve" smooth="yes"/>
      <point x="48" y="-18"/>
      <point x="70" y="-47"/>
    </contour>
    <contour>
      <point x="212" y="340" type="line" smooth="yes"/>
      <point x="218" y="370"/>
      <point x="198" y="396"/>
      <point x="168" y="396" type="curve" smooth="yes"/>
      <point x="142" y="396"/>
      <point x="118" y="381"/>
      <point x="113" y="353" type="curve" smooth="yes"/>
      <point x="83" y="186" type="line" smooth="yes"/>
      <point x="77" y="154"/>
      <point x="102" y="129"/>
      <point x="130" y="129" type="curve" smooth="yes"/>
      <point x="156" y="129"/>
      <point x="176" y="146"/>
      <point x="182" y="172" type="curve" smooth="yes"/>
    </contour>
  </outline>
</glyph>
<glyph name="exclamdown.c2sc" format="2">
  <advance width="327"/>
  <outline>
    <contour>
      <point x="172" y="443" type="curve" smooth="yes"/>
      <point x="142" y="443"/>
      <point x="115" y="416"/>
      <point x="115" y="387" type="curve" smooth="yes"/>
      <point x="115" y="358"/>
      <point x="142" y="332"/>
      <point x="172" y="332" type="curve" smooth="yes"/>
      <point x="203" y="332"/>
      <point x="225" y="360"/>
      <point x="225" y="387" type="curve" smooth="yes"/>
      <point x="225" y="414"/>
      <point x="203" y="443"/>
    </contour>
    <contour>
      <point x="61" y="56" type="line" smooth="yes"/>
      <point x="55" y="26"/>
      <point x="75" y="0"/>
      <point x="105" y="0" type="curve" smooth="yes"/>
      <point x="131" y="0"/>
      <point x="155" y="15"/>
      <point x="160" y="43" type="curve" smooth="yes"/>
      <point x="190" y="210" type="line" smooth="yes"/>
      <point x="196" y="242"/>
      <point x="171" y="267"/>
      <point x="143" y="267" type="curve" smooth="yes"/>
      <point x="117" y="267"/>
      <point x="97" y="250"/>
      <point x="91" y="224" type="curve" smooth="yes"/>
    </contour>
  </outline>
</glyph>
<glyph name="f.sc" format="2">
  <advance width="408"/>
  <outline>
    <contour>
      <point x="202" y="336" type="line" smooth="yes"/>
      <point x="207" y="366"/>
      <point x="192" y="396"/>
      <point x="158" y="396" type="curve" smooth="yes"/>
      <point x="133" y="396"/>
      <point x="113" y="384"/>
      <point x="108" y="353" type="curve" smooth="yes"/>
      <point x="55" y="52" type="line" smooth="yes"/>
      <point x="50" y="25"/>
      <point x="71" y="0"/>
      <point x="101" y="0" type="curve" smooth="yes"/>
      <point x="129" y="0"/>
      <point x="146" y="19"/>
      <point x="150" y="40" type="curve" smooth="yes"/>
    </contour>
    <contour>
      <point x="139" y="151" type="line"/>
      <point x="279" y="151" type="line" smooth="yes"/>
      <point x="308" y="151"/>
      <point x="327" y="168"/>
      <point x="327" y="192" type="curve" smooth="yes"/>
      <point x="327" y="218"/>
      <point x="307" y="225"/>
      <point x="279" y="225" type="curve" smooth="yes"/>
      <point x="153" y="225" type="line"/>
    </contour>
    <contour>
      <point x="143" y="303" type="line"/>
      <point x="322" y="303" type="line" smooth="yes"/>
      <point x="349" y="303"/>
      <point x="369" y="323"/>
      <point x="369" y="349" type="curve" smooth="yes"/>
      <point x="369" y="376"/>
      <point x="349" y="396"/>
      <point x="322" y="396" type="curve" smooth="yes"/>
      <point x="157" y="396" type="line"/>
    </contour>
  </outline>
</glyph>
<glyph name="four.c2sc" format="2">
  <advance width="410"/>
  <outline>
    <contour>
      <point x="173" y="345" type="line" smooth="yes"/>
      <point x="179" y="376"/>
      <point x="154" y="396"/>
      <point x="128" y="396" type="curve" smooth="yes"/>
      <point x="107" y="396"/>
      <point x="84" y="383"/>
      <point x="79" y="358" type="curve" smooth="yes"/>
      <point x="37" y="129" type="line" smooth="yes"/>
      <point x="32" y="103"/>
      <point x="55" y="80"/>
      <point x="84" y="80" type="curve" smooth="yes"/>
      <point x="110" y="80"/>
      <point x="127" y="99"/>
      <point x="131" y="122" type="curve" smooth="yes"/>
    </contour>
    <contour>
      <point x="263" y="191" type="line" smooth="yes"/>
      <point x="268" y="218"/>
      <point x="249" y="241"/>
      <point x="229" y="243" type="curve" smooth="yes"/>
      <point x="204" y="246"/>
      <point x="174" y="235"/>
      <point x="169" y="206" type="curve" smooth="yes"/>
      <point x="141" y="53" type="line" smooth="yes"/>
      <point x="136" y="23"/>
      <point x="157" y="0"/>
      <point x="183" y="0" type="curve" smooth="yes"/>
      <point x="204" y="0"/>
      <point x="230" y="12"/>
      <point x="235" y="39" type="curve" smooth="yes"/>
    </contour>
    <contour>
      <point x="81" y="80" type="line"/>
      <point x="283" y="80" type="line" smooth="yes"/>
      <point x="310" y="80"/>
      <point x="331" y="101"/>
      <point x="331" y="124" type="curve" smooth="yes"/>
      <point x="331" y="147"/>
      <point x="310" y="165"/>
      <point x="283" y="165" type="curve" smooth="yes"/>
      <point x="81" y="165" type="line"/>
    </contour>
  </outline>
</glyph>
<glyph name="g.sc" format="2">
  <advance width="504"/>
  <outline>
    <contour>
      <point x="333" y="244" type="line"/>
      <point x="297" y="244"/>
      <point x="282" y="218"/>
      <point x="248" y="165" type="curve" smooth="yes"/>
      <point x="209" y="105"/>
      <point x="184" y="86"/>
      <point x="177" y="86" type="curve" smooth="yes"/>
      <point x="172" y="86"/>
      <point x="171" y="105"/>
      <point x="175" y="130" type="curve" smooth="yes"/>
      <point x="181" y="164"/>
      <point x="185" y="188"/>
      <point x="190" y="218" type="curve" smooth="yes"/>
      <point x="194" y="240"/>
      <point x="198" y="303"/>
      <point x="327" y="303" type="curve" smooth="yes"/>
      <point x="343" y="303" type="line" smooth="yes"/>
      <point x="377" y="303"/>
      <point x="390" y="328"/>
      <point x="391" y="350" type="curve" smooth="yes"/>
      <point x="392" y="374"/>
      <point x="372" y="396"/>
      <point x="343" y="396" type="curve" smooth="yes"/>
      <point x="327" y="396" type="line" smooth="yes"/>
      <point x="163" y="396"/>
      <point x="109" y="311"/>
      <point x="93" y="218" type="curve" smooth="yes"/>
      <point x="91" y="206"/>
      <point x="79" y="139"/>
      <point x="79" y="102" type="curve" smooth="yes"/>
      <point x="79" y="59"/>
      <point x="107" y="-2"/>
      <point x="162" y="-2" type="curve" smooth="yes"/>
      <point x="210" y="-2"/>
      <point x="257" y="52"/>
      <point x="302" y="115" type="curve"/>
    </contour>
    <contour>
      <point x="368" y="196" type="line" smooth="yes"/>
      <point x="371" y="212"/>
      <point x="359" y="244"/>
      <point x="332" y="244" type="curve" smooth="yes"/>
      <point x="330" y="244"/>
      <point x="296" y="237"/>
      <point x="292" y="221" type="curve" smooth="yes"/>
      <point x="247" y="45" type="line" smooth="yes"/>
      <point x="243" y="28"/>
      <point x="256" y="0"/>
      <point x="294" y="0" type="curve" smooth="yes"/>
      <point x="318" y="0"/>
      <point x="338" y="22"/>
      <point x="340" y="36" type="curve" smooth="yes"/>
    </contour>
  </outline>
</glyph>
<glyph name="i.sc" format="2">
  <advance width="369"/>
  <outline>
    <contour>
      <point x="85" y="61" type="line"/>
      <point x="180" y="61" type="line"/>
      <point x="229" y="334" type="line"/>
      <point x="134" y="334" type="line"/>
    </contour>
    <contour>
      <point x="157" y="0" type="line" smooth="yes"/>
      <point x="185" y="0"/>
      <point x="205" y="13"/>
      <point x="205" y="38" type="curve" smooth="yes"/>
      <point x="205" y="62"/>
      <point x="185" y="75"/>
      <point x="157" y="75" type="curve" smooth="yes"/>
      <point x="107" y="75" type="line" smooth="yes"/>
      <point x="79" y="75"/>
      <point x="59" y="62"/>
      <point x="59" y="38" type="curve" smooth="yes"/>
      <point x="59" y="13"/>
      <point x="79" y="0"/>
      <point x="107" y="0" type="curve" smooth="yes"/>
    </contour>
    <contour>
      <point x="207" y="320" type="line" smooth="yes"/>
      <point x="236" y="320"/>
      <point x="255" y="333"/>
      <point x="255" y="357" type="curve" smooth="yes"/>
      <point x="255" y="382"/>
      <point x="236" y="396"/>
      <point x="207" y="396" type="curve" smooth="yes"/>
      <point x="158" y="396" type="line" smooth="yes"/>
      <point x="129" y="396"/>
      <point x="110" y="382"/>
      <point x="110" y="357" type="curve" smooth="yes"/>
      <point x="110" y="333"/>
      <point x="129" y="320"/>
      <point x="158" y="320" type="curve" smooth="yes"/>
    </contour>
  </outline>
</glyph>
<glyph name="j.sc" format="2">
  <advance width="522"/>
  <outline>
    <contour>
      <point x="343" y="331" type="line"/>
      <point x="248" y="331" type="line"/>
      <point x="223" y="190" type="line" smooth="yes"/>
      <point x="217" y="154"/>
      <point x="212" y="131"/>
      <point x="204" y="109" type="curve" smooth="yes"/>
      <point x="200" y="99"/>
      <point x="182" y="95"/>
      <point x="173" y="94" type="curve" smooth="yes"/>
      <point x="162" y="93"/>
      <point x="114" y="93"/>
      <point x="102" y="93" type="curve" smooth="yes"/>
      <point x="77" y="93"/>
      <point x="55" y="70"/>
      <point x="55" y="46" type="curve" smooth="yes"/>
      <point x="55" y="20"/>
      <point x="78" y="0"/>
      <point x="102" y="0" type="curve" smooth="yes"/>
      <point x="108" y="0"/>
      <point x="133" y="0"/>
      <point x="144" y="0" type="curve" smooth="yes"/>
      <point x="221" y="0"/>
      <point x="262" y="23"/>
      <point x="286" y="60" type="curve" smooth="yes"/>
      <point x="299" y="80"/>
      <point x="314" y="160"/>
      <point x="318" y="182" type="curve" smooth="yes"/>
    </contour>
    <contour>
      <point x="366" y="318" type="line" smooth="yes"/>
      <point x="394" y="318"/>
      <point x="414" y="333"/>
      <point x="414" y="357" type="curve" smooth="yes"/>
      <point x="414" y="381"/>
      <point x="395" y="396"/>
      <point x="366" y="396" type="curve" smooth="yes"/>
      <point x="234" y="396" type="line" smooth="yes"/>
      <point x="205" y="396"/>
      <point x="186" y="384"/>
      <point x="186" y="357" type="curve" smooth="yes"/>
      <point x="186" y="331"/>
      <point x="205" y="318"/>
      <point x="234" y="318" type="curve" smooth="yes"/>
    </contour>
  </outline>
</glyph>
<glyph name="k.sc" format="2">
  <advance width="419"/>
  <outline>
    <contour>
      <point x="203" y="340" type="line" smooth="yes"/>
      <point x="208" y="372"/>
      <point x="188" y="396"/>
      <point x="158" y="396" type="curve" smooth="yes"/>
      <point x="133" y="396"/>
      <point x="113" y="378"/>
      <point x="109" y="353" type="curve" smooth="yes"/>
      <point x="56" y="55" type="line" smooth="yes"/>
      <point x="50" y="27"/>
      <point x="72" y="0"/>
      <point x="102" y="0" type="curve" smooth="yes"/>
      <point x="130" y="0"/>
      <point x="146" y="20"/>
      <point x="150" y="44" type="curve" smooth="yes"/>
    </contour>
    <contour>
      <point x="185" y="232" type="line"/>
      <point x="111" y="232" type="line"/>
      <point x="111" y="174" type="line"/>
      <point x="215" y="24" type="line" smooth="yes"/>
      <point x="226" y="8"/>
      <point x="243" y="0"/>
      <point x="259" y="0" type="curve" smooth="yes"/>
      <point x="281" y="0"/>
      <point x="300" y="14"/>
      <point x="304" y="34" type="curve"/>
      <point x="308" y="46"/>
      <point x="305" y="59"/>
      <point x="295" y="73" type="curve" smooth="yes"/>
    </contour>
    <contour>
      <point x="111" y="179" type="line"/>
      <point x="177" y="179" type="line"/>
      <point x="338" y="312" type="line" smooth="yes"/>
      <point x="350" y="321"/>
      <point x="358" y="334"/>
      <point x="360" y="345" type="curve" smooth="yes"/>
      <point x="364" y="373"/>
      <point x="343" y="396"/>
      <point x="316" y="396" type="curve" smooth="yes"/>
      <point x="304" y="396"/>
      <point x="288" y="391"/>
      <point x="275" y="379" type="curve" smooth="yes"/>
      <point x="111" y="243" type="line"/>
    </contour>
  </outline>
</glyph>
<glyph name="m.sc" format="2">
  <advance width="641"/>
  <outline>
    <contour>
      <point x="261" y="307" type="line"/>
      <point x="234" y="396" type="line"/>
      <point x="212" y="396"/>
      <point x="200" y="393"/>
      <point x="185" y="364" type="curve" smooth="yes"/>
      <point x="30" y="67" type="line" smooth="yes"/>
      <point x="14" y="36"/>
      <point x="35" y="0"/>
      <point x="70" y="0" type="curve" smooth="yes"/>
      <point x="86" y="0"/>
      <point x="105" y="9"/>
      <point x="116" y="31" type="curve" smooth="yes"/>
    </contour>
    <contour>
      <point x="301" y="63" type="line"/>
      <point x="279" y="356" type="line" smooth="yes"/>
      <point x="277" y="385"/>
      <point x="256" y="396"/>
      <point x="235" y="396" type="curve"/>
      <point x="188" y="315" type="line"/>
      <point x="209" y="42" type="line" smooth="yes"/>
      <point x="211" y="11"/>
      <point x="233" y="0"/>
      <point x="255" y="0" type="curve"/>
    </contour>
    <contour>
      <point x="256" y="0" type="line"/>
      <point x="279" y="0"/>
      <point x="289" y="5"/>
      <point x="301" y="28" type="curve" smooth="yes"/>
      <point x="447" y="307" type="line"/>
      <point x="429" y="396" type="line"/>
      <point x="403" y="396"/>
      <point x="385" y="389"/>
      <point x="373" y="366" type="curve" smooth="yes"/>
      <point x="222" y="78" type="line"/>
    </contour>
    <contour>
      <point x="475" y="350" type="line" smooth="yes"/>
      <point x="472" y="389"/>
      <point x="455" y="396"/>
      <point x="428" y="396" type="curve"/>
      <point x="382" y="315" type="line"/>
      <point x="405" y="43" type="line" smooth="yes"/>
      <point x="407" y="19"/>
      <point x="426" y="0"/>
      <point x="453" y="0" type="curve" smooth="yes"/>
      <point x="482" y="0"/>
      <point x="502" y="22"/>
      <point x="500" y="50" type="curve" smooth="yes"/>
    </contour>
  </outline>
</glyph>
<glyph name="o.sc" format="2">
  <advance width="524"/>
  <outline>
    <contour>
      <point x="189" y="-3" type="curve" smooth="yes"/>
      <point x="288" y="-3"/>
      <point x="394" y="148"/>
      <point x="402" y="252" type="curve" smooth="yes"/>
      <point x="408" y="325"/>
      <point x="368" y="396"/>
      <point x="270" y="396" type="curve" smooth="yes"/>
      <point x="178" y="396"/>
      <point x="125" y="333"/>
      <point x="100" y="249" type="curve" smooth="yes"/>
      <point x="94" y="227"/>
      <point x="88" y="201"/>
      <point x="87" y="175" type="curve" smooth="yes"/>
      <point x="80" y="100"/>
      <point x="100" y="-3"/>
    </contour>
    <contour>
      <point x="188" y="90" type="curve" smooth="yes"/>
      <point x="179" y="90"/>
      <point x="177" y="123"/>
      <point x="181" y="166" type="curve" smooth="yes"/>
      <point x="183" y="186"/>
      <point x="186" y="206"/>
      <point x="190" y="220" type="curve" smooth="yes"/>
      <point x="207" y="283"/>
      <point x="224" y="303"/>
      <point x="267" y="303" type="curve" smooth="yes"/>
      <point x="308" y="303"/>
      <point x="311" y="282"/>
      <point x="308" y="254" type="curve" smooth="yes"/>
      <point x="301" y="182"/>
      <point x="219" y="90"/>
    </contour>
  </outline>
</glyph>
<glyph name="one.c2sc" format="2">
  <advance width="489"/>
  <outline>
    <contour>
      <point x="289" y="353" type="line" smooth="yes"/>
      <point x="295" y="387"/>
      <point x="264" y="396"/>
      <point x="248" y="396" type="curve" smooth="yes"/>
      <point x="232" y="396"/>
      <point x="200" y="389"/>
      <point x="194" y="355" type="curve" smooth="yes"/>
      <point x="139" y="43" type="line" smooth="yes"/>
      <point x="133" y="8"/>
      <point x="164" y="0"/>
      <point x="181" y="0" type="curve" smooth="yes"/>
      <point x="195" y="0"/>
      <point x="227" y="5"/>
      <point x="233" y="38" type="curve" smooth="yes"/>
    </contour>
  </outline>
</glyph>
<glyph name="p.sc" format="2">
  <advance width="422"/>
  <outline>
    <contour>
      <point x="107" y="151" type="line"/>
      <point x="175" y="151"/>
      <point x="326" y="139"/>
      <point x="350" y="273" type="curve" smooth="yes"/>
      <point x="365" y="358"/>
      <point x="271" y="396"/>
      <point x="156" y="396" type="curve"/>
      <point x="156" y="303" type="line"/>
      <point x="249" y="305"/>
      <point x="266" y="301"/>
      <point x="258" y="261" type="curve" smooth="yes"/>
      <point x="252" y="232"/>
      <point x="186" y="222"/>
      <point x="123" y="222" type="curve"/>
    </contour>
    <contour>
      <point x="203" y="342" type="line" smooth="yes"/>
      <point x="208" y="373"/>
      <point x="183" y="396"/>
      <point x="158" y="396" type="curve" smooth="yes"/>
      <point x="132" y="396"/>
      <point x="113" y="381"/>
      <point x="108" y="353" type="curve" smooth="yes"/>
      <point x="55" y="52" type="line" smooth="yes"/>
      <point x="50" y="25"/>
      <point x="71" y="0"/>
      <point x="101" y="0" type="curve" smooth="yes"/>
      <point x="128" y="0"/>
      <point x="146" y="20"/>
      <point x="150" y="41" type="curve" smooth="yes"/>
    </contour>
  </outline>
</glyph>
<glyph name="q.sc" format="2">
  <advance width="525"/>
  <outline>
    <contour>
      <point x="190" y="-2" type="curve" smooth="yes"/>
      <point x="288" y="-2"/>
      <point x="392" y="135"/>
      <point x="401" y="240" type="curve" smooth="yes"/>
      <point x="409" y="319"/>
      <point x="364" y="396"/>
      <point x="269" y="396" type="curve" smooth="yes"/>
      <point x="178" y="396"/>
      <point x="126" y="338"/>
      <point x="100" y="249" type="curve" smooth="yes"/>
      <point x="93" y="226"/>
      <point x="89" y="200"/>
      <point x="86" y="176" type="curve" smooth="yes"/>
      <point x="81" y="100"/>
      <point x="100" y="-2"/>
    </contour>
    <contour>
      <point x="271" y="121" type="line" smooth="yes"/>
      <point x="255" y="145"/>
      <point x="229" y="158"/>
      <point x="208" y="140" type="curve" smooth="yes"/>
      <point x="188" y="125"/>
      <point x="189" y="102"/>
      <point x="206" y="77" type="curve" smooth="yes"/>
      <point x="258" y="0" type="line" smooth="yes"/>
      <point x="274" y="-24"/>
      <point x="301" y="-30"/>
      <point x="320" y="-18" type="curve" smooth="yes"/>
      <point x="343" y="-4"/>
      <point x="339" y="19"/>
      <point x="324" y="42" type="curve" smooth="yes"/>
    </contour>
    <contour>
      <point x="190" y="88" type="curve" smooth="yes"/>
      <point x="180" y="88"/>
      <point x="177" y="121"/>
      <point x="180" y="163" type="curve" smooth="yes"/>
      <point x="183" y="185"/>
      <point x="187" y="205"/>
      <point x="191" y="222" type="curve" smooth="yes"/>
      <point x="209" y="284"/>
      <point x="223" y="303"/>
      <point x="265" y="303" type="curve" smooth="yes"/>
      <point x="303" y="303"/>
      <point x="311" y="281"/>
      <point x="307" y="246" type="curve" smooth="yes"/>
      <point x="298" y="162"/>
      <point x="228" y="88"/>
    </contour>
  </outline>
</glyph>
<glyph name="questiondown.c2sc" format="2">
  <advance width="522"/>
  <outline>
    <contour>
      <point x="291" y="291" type="line"/>
      <point x="188" y="298"/>
      <point x="90" y="261"/>
      <point x="80" y="145" type="curve" smooth="yes"/>
      <point x="73" y="62"/>
      <point x="119" y="0"/>
      <point x="219" y="0" type="curve" smooth="yes"/>
      <point x="291" y="0"/>
      <point x="344" y="35"/>
      <point x="372" y="101" type="curve" smooth="yes"/>
      <point x="383" y="127"/>
      <point x="373" y="156"/>
      <point x="349" y="166" type="curve" smooth="yes"/>
      <point x="329" y="173"/>
      <point x="292" y="167"/>
      <point x="281" y="140" type="curve" smooth="yes"/>
      <point x="267" y="107"/>
      <point x="253" y="96"/>
      <point x="222" y="96" type="curve" smooth="yes"/>
      <point x="190" y="96"/>
      <point x="175" y="111"/>
      <point x="180" y="143" type="curve" smooth="yes"/>
      <point x="189" y="200"/>
      <point x="233" y="196"/>
      <point x="280" y="196" type="curve" smooth="yes"/>
      <point x="278" y="196"/>
      <point x="285" y="201"/>
      <point x="313" y="220" type="curve"/>
    </contour>
    <contour>
      <point x="312" y="488" type="curve" smooth="yes"/>
      <point x="282" y="488"/>
      <point x="254" y="462"/>
      <point x="254" y="435" type="curve" smooth="yes"/>
      <point x="254" y="403"/>
      <point x="280" y="377"/>
      <point x="312" y="377" type="curve" smooth="yes"/>
      <point x="341" y="377"/>
      <point x="364" y="405"/>
      <point x="364" y="435" type="curve" smooth="yes"/>
      <point x="364" y="460"/>
      <point x="341" y="488"/>
    </contour>
    <contour>
      <point x="300" y="341" type="curve" smooth="yes"/>
      <point x="273" y="346"/>
      <point x="245" y="332"/>
      <point x="238" y="296" type="curve" smooth="yes"/>
      <point x="228" y="242" type="line" smooth="yes"/>
      <point x="223" y="217"/>
      <point x="247" y="196"/>
      <point x="279" y="196" type="curve" smooth="yes"/>
      <point x="301" y="196"/>
      <point x="325" y="212"/>
      <point x="329" y="234" type="curve" smooth="yes"/>
      <point x="339" y="287" type="line" smooth="yes"/>
      <point x="344" y="314"/>
      <point x="325" y="335"/>
    </contour>
  </outline>
</glyph>
<glyph name="s.sc" format="2">
  <advance width="493"/>
  <outline>
    <contour>
      <point x="171" y="0" type="line" smooth="yes"/>
      <point x="229" y="0"/>
      <point x="347" y="31"/>
      <point x="347" y="126" type="curve" smooth="yes"/>
      <point x="347" y="187"/>
      <point x="292" y="221"/>
      <point x="284" y="227" type="curve" smooth="yes"/>
      <point x="272" y="236"/>
      <point x="263" y="242"/>
      <point x="251" y="250" type="curve" smooth="yes"/>
      <point x="227" y="266"/>
      <point x="202" y="280"/>
      <point x="202" y="285" type="curve" smooth="yes"/>
      <point x="202" y="292"/>
      <point x="229" y="303"/>
      <point x="261" y="303" type="curve" smooth="yes"/>
      <point x="341" y="303" type="line" smooth="yes"/>
      <point x="368" y="303"/>
      <point x="388" y="326"/>
      <point x="388" y="350" type="curve" smooth="yes"/>
      <point x="388" y="382"/>
      <point x="368" y="396"/>
      <point x="341" y="396" type="curve" smooth="yes"/>
      <point x="261" y="396" type="line" smooth="yes"/>
      <point x="180" y="396"/>
      <point x="106" y="346"/>
      <point x="106" y="282" type="curve" smooth="yes"/>
      <point x="106" y="235"/>
      <point x="148" y="209"/>
      <point x="195" y="175" type="curve" smooth="yes"/>
      <point x="203" y="169"/>
      <point x="214" y="162"/>
      <point x="224" y="155" type="curve" smooth="yes"/>
      <point x="237" y="146"/>
      <point x="249" y="137"/>
      <point x="249" y="125" type="curve" smooth="yes"/>
      <point x="249" y="103"/>
      <point x="200" y="93"/>
      <point x="171" y="93" type="curve" smooth="yes"/>
      <point x="110" y="93" type="line" smooth="yes"/>
      <point x="84" y="93"/>
      <point x="63" y="69"/>
      <point x="63" y="46" type="curve" smooth="yes"/>
      <point x="63" y="14"/>
      <point x="90" y="0"/>
      <point x="110" y="0" type="curve" smooth="yes"/>
    </contour>
  </outline>
</glyph>
<glyph name="six.c2sc" format="2">
  <advance width="422"/>
  <outline>
    <contour>
      <point x="143" y="92" type="line"/>
      <point x="135" y="133"/>
      <point x="158" y="175"/>
      <point x="204" y="242" type="curve" smooth="yes"/>
      <point x="219" y="264"/>
      <point x="242" y="286"/>
      <point x="283" y="314" type="curve" smooth="yes"/>
      <point x="297" y="323"/>
      <point x="306" y="338"/>
      <point x="306" y="354" type="curve" smooth="yes"/>
      <point x="306" y="376"/>
      <point x="286" y="396"/>
      <point x="261" y="396" type="curve" smooth="yes"/>
      <point x="252" y="396"/>
      <point x="241" y="393"/>
      <point x="231" y="386" type="curve" smooth="yes"/>
      <point x="197" y="366"/>
      <point x="147" y="320"/>
      <point x="125" y="290" type="curve" smooth="yes"/>
      <point x="75" y="219"/>
      <point x="53" y="158"/>
      <point x="54" y="92" type="curve"/>
    </contour>
    <contour>
      <point x="54" y="97" type="line"/>
      <point x="53" y="47"/>
      <point x="94" y="-4"/>
      <point x="155" y="-4" type="curve" smooth="yes"/>
      <point x="237" y="-4"/>
      <point x="311" y="105"/>
      <point x="311" y="180" type="curve" smooth="yes"/>
      <point x="311" y="236"/>
      <point x="274" y="267"/>
      <point x="214" y="267" type="curve" smooth="yes"/>
      <point x="147" y="267"/>
      <point x="98" y="226"/>
      <point x="75" y="183" type="curve"/>
    </contour>
    <contour>
      <point x="162" y="84" type="curve" smooth="yes"/>
      <point x="152" y="84"/>
      <point x="147" y="94"/>
      <point x="147" y="113" type="curve" smooth="yes"/>
      <point x="147" y="147"/>
      <point x="170" y="179"/>
      <point x="204" y="179" type="curve" smooth="yes"/>
      <point x="216" y="179"/>
      <point x="218" y="175"/>
      <point x="218" y="163" type="curve" smooth="yes"/>
      <point x="218" y="133"/>
      <point x="182" y="84"/>
    </contour>
  </outline>
</glyph>
<glyph name="t.sc" format="2">
  <advance width="479"/>
  <outline>
    <contour>
      <point x="288" y="313" type="line"/>
      <point x="190" y="313" type="line"/>
      <point x="144" y="52" type="line" smooth="yes"/>
      <point x="139" y="25"/>
      <point x="160" y="0"/>
      <point x="191" y="0" type="curve" smooth="yes"/>
      <point x="218" y="0"/>
      <point x="236" y="18"/>
      <point x="240" y="40" type="curve" smooth="yes"/>
    </contour>
    <contour>
      <point x="327" y="302" type="line" smooth="yes"/>
      <point x="354" y="302"/>
      <point x="374" y="322"/>
      <point x="374" y="348" type="curve" smooth="yes"/>
      <point x="374" y="375"/>
      <point x="354" y="395"/>
      <point x="327" y="395" type="curve" smooth="yes"/>
      <point x="164" y="395" type="line" smooth="yes"/>
      <point x="136" y="395"/>
      <point x="116" y="375"/>
      <point x="116" y="348" type="curve" smooth="yes"/>
      <point x="116" y="322"/>
      <point x="136" y="302"/>
      <point x="164" y="302" type="curve" smooth="yes"/>
    </contour>
  </outline>
</glyph>
<glyph name="u.sc" format="2">
  <advance width="506"/>
  <outline>
    <contour>
      <point x="353" y="316" type="line"/>
      <point x="297" y="316" type="line"/>
      <point x="290" y="264"/>
      <point x="272" y="232"/>
      <point x="260" y="213" type="curve" smooth="yes"/>
      <point x="229" y="161"/>
      <point x="173" y="90"/>
      <point x="164" y="90" type="curve" smooth="yes"/>
      <point x="159" y="90"/>
      <point x="163" y="119"/>
      <point x="168" y="148" type="curve" smooth="yes"/>
      <point x="203" y="341" type="line" smooth="yes"/>
      <point x="208" y="368"/>
      <point x="190" y="394"/>
      <point x="161" y="396" type="curve" smooth="yes"/>
      <point x="136" y="396"/>
      <point x="114" y="379"/>
      <point x="109" y="352" type="curve" smooth="yes"/>
      <point x="69" y="131" type="line" smooth="yes"/>
      <point x="53" y="44"/>
      <point x="84" y="-2"/>
      <point x="138" y="-2" type="curve" smooth="yes"/>
      <point x="200" y="-2"/>
      <point x="265" y="77"/>
      <point x="343" y="194" type="curve"/>
    </contour>
    <contour>
      <point x="397" y="343" type="line" smooth="yes"/>
      <point x="402" y="371"/>
      <point x="381" y="396"/>
      <point x="350" y="396" type="curve" smooth="yes"/>
      <point x="326" y="396"/>
      <point x="306" y="378"/>
      <point x="302" y="355" type="curve" smooth="yes"/>
      <point x="249" y="52" type="line" smooth="yes"/>
      <point x="244" y="23"/>
      <point x="267" y="-1"/>
      <point x="295" y="-1" type="curve" smooth="yes"/>
      <point x="319" y="-1"/>
      <point x="339" y="16"/>
      <point x="343" y="39" type="curve" smooth="yes"/>
    </contour>
  </outline>
</glyph>
<glyph name="y.sc" format="2">
  <advance width="517"/>
  <outline>
    <contour>
      <point x="248" y="134" type="line"/>
      <point x="401" y="320" type="line"/>
      <point x="417" y="342"/>
      <point x="418" y="368"/>
      <point x="396" y="385" type="curve" smooth="yes"/>
      <point x="377" y="401"/>
      <point x="345" y="399"/>
      <point x="325" y="376" type="curve" smooth="yes"/>
      <point x="191" y="214" type="line"/>
    </contour>
    <contour>
      <point x="292" y="230" type="line"/>
      <point x="198" y="230" type="line"/>
      <point x="166" y="52" type="line" smooth="yes"/>
      <point x="161" y="24"/>
      <point x="182" y="0"/>
      <point x="212" y="0" type="curve" smooth="yes"/>
      <point x="240" y="0"/>
      <point x="256" y="19"/>
      <point x="261" y="40" type="curve"/>
    </contour>
    <contour>
      <point x="216" y="136" type="line"/>
      <point x="287" y="209" type="line"/>
      <point x="209" y="366" type="line" smooth="yes"/>
      <point x="196" y="392"/>
      <point x="169" y="402"/>
      <point x="145" y="392" type="curve" smooth="yes"/>
      <point x="118" y="382"/>
      <point x="111" y="352"/>
      <point x="122" y="329" type="curve" smooth="yes"/>
    </contour>
  </outline>
</glyph>
<glyph name="z.sc" format="2">
  <advance width="514"/>
  <outline>
    <contour>
      <point x="394" y="318" type="line" smooth="yes"/>
      <point x="407" y="333"/>
      <point x="407" y="354"/>
      <point x="399" y="372" type="curve" smooth="yes"/>
      <point x="391" y="386"/>
      <point x="373" y="395"/>
      <point x="354" y="395" type="curve" smooth="yes"/>
      <point x="344" y="395"/>
      <point x="325" y="386"/>
      <point x="318" y="380" type="curve"/>
      <point x="66" y="75" type="line" smooth="yes"/>
      <point x="56" y="62"/>
      <point x="51" y="44"/>
      <point x="59" y="26" type="curve" smooth="yes"/>
      <point x="66" y="10"/>
      <point x="84" y="0"/>
      <point x="107" y="0" type="curve" smooth="yes"/>
      <point x="123" y="0"/>
      <point x="137" y="8"/>
      <point x="145" y="17" type="curve" smooth="yes"/>
    </contour>
    <contour>
      <point x="105" y="0" type="line"/>
      <point x="302" y="0" type="line" smooth="yes"/>
      <point x="330" y="0"/>
      <point x="350" y="20"/>
      <point x="350" y="46" type="curve" smooth="yes"/>
      <point x="350" y="72"/>
      <point x="330" y="93"/>
      <point x="302" y="93" type="curve" smooth="yes"/>
      <point x="186" y="93" type="line"/>
    </contour>
    <contour>
      <point x="277" y="302" type="line"/>
      <point x="356" y="395" type="line"/>
      <point x="157" y="395" type="line" smooth="yes"/>
      <point x="128" y="395"/>
      <point x="109" y="372"/>
      <point x="109" y="348" type="curve" smooth="yes"/>
      <point x="109" y="324"/>
      <point x="129" y="302"/>
      <point x="157" y="302" type="curve" smooth="yes"/>
    </contour>
  </outline>
</glyph>
